<svg xmlns="http://www.w3.org/2000/svg" viewBox="0 0 600 512" width="1200" height="1024">
  <g fill="white" fill-rule="evenodd">
    <path d="M 342.0 393.0 L 340.0 393.0 L 338.0 393.0 L 337.0 392.0 L 336.0 391.0 L 335.0 390.0 L 334.0 389.0 L 333.0 388.0 L 332.0 387.0 L 331.0 386.0 L 331.0 384.0 L 331.0 382.0 L 330.0 381.0 L 329.0 380.0 L 329.0 378.0 L 329.0 376.0 L 329.0 374.0 L 329.0 372.0 L 329.0 370.0 L 329.0 368.0 L 329.0 366.0 L 329.0 364.0 L 329.0 362.0 L 328.0 361.0 L 327.0 360.0 L 327.0 358.0 L 327.0 356.0 L 327.0 354.0 L 327.0 352.0 L 327.0 350.0 L 327.0 348.0 L 327.0 346.0 L 327.0 344.0 L 327.0 342.0 L 327.0 340.0 L 327.0 338.0 L 327.0 336.0 L 327.0 334.0 L 327.0 332.0 L 327.0 330.0 L 327.0 328.0 L 327.0 326.0 L 327.0 324.0 L 327.0 322.0 L 327.0 320.0 L 327.0 318.0 L 327.0 316.0 L 327.0 314.0 L 327.0 312.0 L 327.0 310.0 L 327.0 308.0 L 327.0 306.0 L 327.0 304.0 L 327.0 302.0 L 327.0 300.0 L 327.0 298.0 L 327.0 296.0 L 327.0 294.0 L 327.0 292.0 L 327.0 290.0 L 327.0 288.0 L 327.0 286.0 L 327.0 284.0 L 327.0 282.0 L 327.0 280.0 L 327.0 278.0 L 327.0 276.0 L 327.0 274.0 L 327.0 272.0 L 327.0 270.0 L 327.0 268.0 L 327.0 266.0 L 327.0 264.0 L 327.0 262.0 L 327.0 260.0 L 327.0 258.0 L 327.0 256.0 L 327.0 254.0 L 327.0 252.0 L 327.0 250.0 L 327.0 248.0 L 327.0 246.0 L 327.0 244.0 L 327.0 242.0 L 327.0 240.0 L 327.0 238.0 L 327.0 236.0 L 327.0 234.0 L 327.0 232.0 L 327.0 230.0 L 327.0 228.0 L 327.0 226.0 L 327.0 224.0 L 327.0 222.0 L 327.0 220.0 L 327.0 218.0 L 327.0 216.0 L 327.0 214.0 L 327.0 212.0 L 326.0 211.0 L 325.0 212.0 L 325.0 214.0 L 325.0 216.0 L 324.0 217.0 L 323.0 218.0 L 323.0 220.0 L 323.0 222.0 L 322.0 223.0 L 321.0 224.0 L 321.0 226.0 L 320.0 227.0 L 319.0 228.0 L 319.0 230.0 L 319.0 232.0 L 318.0 233.0 L 317.0 234.0 L 317.0 236.0 L 316.0 237.0 L 315.0 238.0 L 315.0 240.0 L 315.0 242.0 L 314.0 243.0 L 313.0 244.0 L 313.0 246.0 L 312.0 247.0 L 311.0 248.0 L 311.0 250.0 L 311.0 252.0 L 310.0 253.0 L 309.0 254.0 L 309.0 256.0 L 309.0 258.0 L 308.0 259.0 L 307.0 260.0 L 307.0 262.0 L 306.0 263.0 L 305.0 264.0 L 305.0 266.0 L 304.0 267.0 L 303.0 268.0 L 303.0 270.0 L 302.0 271.0 L 301.0 272.0 L 301.0 274.0 L 300.0 275.0 L 299.0 276.0 L 299.0 278.0 L 298.0 279.0 L 297.0 280.0 L 296.0 281.0 L 295.0 282.0 L 294.0 283.0 L 292.0 283.0 L 291.0 284.0 L 290.0 285.0 L 288.0 285.0 L 286.0 285.0 L 284.0 285.0 L 282.0 285.0 L 280.0 285.0 L 278.0 285.0 L 276.0 285.0 L 274.0 285.0 L 272.0 285.0 L 270.0 285.0 L 268.0 285.0 L 266.0 285.0 L 264.0 285.0 L 262.0 285.0 L 260.0 285.0 L 258.0 285.0 L 256.0 285.0 L 254.0 285.0 L 252.0 285.0 L 250.0 285.0 L 248.0 285.0 L 246.0 285.0 L 244.0 285.0 L 242.0 285.0 L 240.0 285.0 L 238.0 285.0 L 236.0 285.0 L 234.0 285.0 L 232.0 285.0 L 230.0 285.0 L 228.0 285.0 L 226.0 285.0 L 224.0 285.0 L 222.0 285.0 L 221.0 286.0 L 220.0 287.0 L 218.0 287.0 L 216.0 287.0 L 214.0 287.0 L 212.0 287.0 L 210.0 287.0 L 208.0 287.0 L 206.0 287.0 L 204.0 287.0 L 202.0 287.0 L 200.0 287.0 L 198.0 287.0 L 196.0 287.0 L 194.0 287.0 L 192.0 287.0 L 190.0 287.0 L 188.0 287.0 L 186.0 287.0 L 184.0 287.0 L 182.0 287.0 L 180.0 287.0 L 178.0 287.0 L 176.0 287.0 L 174.0 287.0 L 172.0 287.0 L 170.0 287.0 L 168.0 287.0 L 166.0 287.0 L 164.0 287.0 L 162.0 287.0 L 160.0 287.0 L 158.0 287.0 L 156.0 287.0 L 154.0 287.0 L 152.0 287.0 L 150.0 287.0 L 148.0 287.0 L 146.0 287.0 L 144.0 287.0 L 142.0 287.0 L 140.0 287.0 L 138.0 287.0 L 136.0 287.0 L 134.0 287.0 L 132.0 287.0 L 130.0 287.0 L 128.0 287.0 L 126.0 287.0 L 124.0 287.0 L 122.0 287.0 L 120.0 287.0 L 118.0 287.0 L 116.0 287.0 L 114.0 287.0 L 112.0 287.0 L 110.0 287.0 L 108.0 287.0 L 106.0 287.0 L 104.0 287.0 L 102.0 287.0 L 100.0 287.0 L 98.0 287.0 L 97.0 288.0 L 96.0 289.0 L 94.0 289.0 L 92.0 289.0 L 90.0 289.0 L 88.0 289.0 L 86.0 289.0 L 84.0 289.0 L 82.0 289.0 L 80.0 289.0 L 78.0 289.0 L 76.0 289.0 L 74.0 289.0 L 72.0 289.0 L 70.0 289.0 L 68.0 289.0 L 66.0 289.0 L 64.0 289.0 L 62.0 289.0 L 60.0 289.0 L 58.0 289.0 L 56.0 289.0 L 54.0 289.0 L 52.0 289.0 L 51.0 288.0 L 50.0 287.0 L 48.0 287.0 L 47.0 286.0 L 46.0 285.0 L 45.0 284.0 L 44.0 283.0 L 43.0 282.0 L 42.0 281.0 L 41.0 280.0 L 41.0 278.0 L 42.0 277.0 L 43.0 276.0 L 43.0 274.0 L 44.0 273.0 L 45.0 272.0 L 46.0 271.0 L 48.0 271.0 L 49.0 270.0 L 50.0 269.0 L 52.0 269.0 L 54.0 269.0 L 56.0 269.0 L 58.0 269.0 L 60.0 269.0 L 61.0 268.0 L 62.0 267.0 L 64.0 267.0 L 66.0 267.0 L 68.0 267.0 L 70.0 267.0 L 72.0 267.0 L 74.0 267.0 L 76.0 267.0 L 78.0 267.0 L 80.0 267.0 L 82.0 267.0 L 84.0 267.0 L 86.0 267.0 L 88.0 267.0 L 90.0 267.0 L 92.0 267.0 L 94.0 267.0 L 96.0 267.0 L 98.0 267.0 L 100.0 267.0 L 102.0 267.0 L 104.0 267.0 L 106.0 267.0 L 108.0 267.0 L 110.0 267.0 L 111.0 266.0 L 112.0 265.0 L 114.0 265.0 L 116.0 265.0 L 118.0 265.0 L 120.0 265.0 L 122.0 265.0 L 124.0 265.0 L 126.0 265.0 L 128.0 265.0 L 130.0 265.0 L 132.0 265.0 L 134.0 265.0 L 136.0 265.0 L 138.0 265.0 L 140.0 265.0 L 142.0 265.0 L 144.0 265.0 L 146.0 265.0 L 148.0 265.0 L 150.0 265.0 L 152.0 265.0 L 154.0 265.0 L 156.0 265.0 L 158.0 265.0 L 160.0 265.0 L 162.0 265.0 L 164.0 265.0 L 166.0 265.0 L 168.0 265.0 L 170.0 265.0 L 172.0 265.0 L 174.0 265.0 L 176.0 265.0 L 178.0 265.0 L 180.0 265.0 L 182.0 265.0 L 184.0 265.0 L 186.0 265.0 L 188.0 265.0 L 190.0 265.0 L 192.0 265.0 L 194.0 265.0 L 196.0 265.0 L 198.0 265.0 L 200.0 265.0 L 202.0 265.0 L 203.0 264.0 L 203.0 262.0 L 203.0 260.0 L 203.0 258.0 L 204.0 257.0 L 205.0 256.0 L 205.0 254.0 L 205.0 252.0 L 205.0 250.0 L 206.0 249.0 L 207.0 248.0 L 207.0 246.0 L 207.0 244.0 L 207.0 242.0 L 208.0 241.0 L 209.0 240.0 L 209.0 238.0 L 209.0 236.0 L 209.0 234.0 L 209.0 232.0 L 210.0 231.0 L 211.0 230.0 L 211.0 228.0 L 211.0 226.0 L 211.0 224.0 L 212.0 223.0 L 213.0 222.0 L 213.0 220.0 L 213.0 218.0 L 213.0 216.0 L 213.0 214.0 L 214.0 213.0 L 215.0 212.0 L 215.0 210.0 L 215.0 208.0 L 215.0 206.0 L 215.0 204.0 L 216.0 203.0 L 217.0 202.0 L 217.0 200.0 L 217.0 198.0 L 217.0 196.0 L 217.0 194.0 L 218.0 193.0 L 219.0 192.0 L 219.0 190.0 L 219.0 188.0 L 219.0 186.0 L 220.0 185.0 L 221.0 184.0 L 221.0 182.0 L 221.0 180.0 L 221.0 178.0 L 221.0 176.0 L 222.0 175.0 L 223.0 174.0 L 223.0 172.0 L 223.0 170.0 L 223.0 168.0 L 223.0 166.0 L 224.0 165.0 L 225.0 164.0 L 225.0 162.0 L 225.0 160.0 L 225.0 158.0 L 226.0 157.0 L 227.0 156.0 L 227.0 154.0 L 227.0 152.0 L 227.0 150.0 L 227.0 148.0 L 228.0 147.0 L 229.0 146.0 L 229.0 144.0 L 229.0 142.0 L 229.0 140.0 L 230.0 139.0 L 231.0 138.0 L 231.0 136.0 L 231.0 134.0 L 231.0 132.0 L 232.0 131.0 L 233.0 130.0 L 233.0 128.0 L 233.0 126.0 L 233.0 124.0 L 233.0 122.0 L 234.0 121.0 L 235.0 120.0 L 235.0 118.0 L 235.0 116.0 L 235.0 114.0 L 236.0 113.0 L 237.0 112.0 L 237.0 110.0 L 237.0 108.0 L 237.0 106.0 L 237.0 104.0 L 238.0 103.0 L 239.0 102.0 L 239.0 100.0 L 239.0 98.0 L 239.0 96.0 L 240.0 95.0 L 241.0 94.0 L 241.0 92.0 L 241.0 90.0 L 241.0 88.0 L 241.0 86.0 L 242.0 85.0 L 243.0 84.0 L 243.0 82.0 L 243.0 80.0 L 243.0 78.0 L 244.0 77.0 L 245.0 76.0 L 245.0 74.0 L 245.0 72.0 L 245.0 70.0 L 246.0 69.0 L 247.0 68.0 L 247.0 66.0 L 247.0 64.0 L 247.0 62.0 L 247.0 60.0 L 248.0 59.0 L 249.0 58.0 L 249.0 56.0 L 249.0 54.0 L 249.0 52.0 L 250.0 51.0 L 251.0 50.0 L 251.0 48.0 L 251.0 46.0 L 251.0 44.0 L 251.0 42.0 L 252.0 41.0 L 253.0 40.0 L 254.0 39.0 L 256.0 39.0 L 258.0 39.0 L 260.0 39.0 L 262.0 39.0 L 264.0 39.0 L 266.0 39.0 L 268.0 39.0 L 270.0 39.0 L 272.0 39.0 L 274.0 39.0 L 276.0 39.0 L 278.0 39.0 L 280.0 39.0 L 282.0 39.0 L 284.0 39.0 L 286.0 39.0 L 288.0 39.0 L 290.0 39.0 L 292.0 39.0 L 294.0 39.0 L 296.0 39.0 L 298.0 39.0 L 300.0 39.0 L 302.0 39.0 L 304.0 39.0 L 306.0 39.0 L 308.0 39.0 L 310.0 39.0 L 312.0 39.0 L 314.0 39.0 L 316.0 39.0 L 318.0 39.0 L 320.0 39.0 L 322.0 39.0 L 324.0 39.0 L 326.0 39.0 L 328.0 39.0 L 330.0 39.0 L 332.0 39.0 L 334.0 39.0 L 336.0 39.0 L 338.0 39.0 L 340.0 39.0 L 342.0 39.0 L 344.0 39.0 L 346.0 39.0 L 348.0 39.0 L 350.0 39.0 L 352.0 39.0 L 354.0 39.0 L 356.0 39.0 L 358.0 39.0 L 360.0 39.0 L 362.0 39.0 L 364.0 39.0 L 366.0 39.0 L 368.0 39.0 L 370.0 39.0 L 372.0 39.0 L 374.0 39.0 L 376.0 39.0 L 378.0 39.0 L 380.0 39.0 L 382.0 39.0 L 384.0 39.0 L 386.0 39.0 L 388.0 39.0 L 390.0 39.0 L 392.0 39.0 L 394.0 39.0 L 396.0 39.0 L 398.0 39.0 L 400.0 39.0 L 402.0 39.0 L 404.0 39.0 L 406.0 39.0 L 408.0 39.0 L 410.0 39.0 L 412.0 39.0 L 414.0 39.0 L 416.0 39.0 L 418.0 39.0 L 420.0 39.0 L 422.0 39.0 L 424.0 39.0 L 426.0 39.0 L 428.0 39.0 L 430.0 39.0 L 432.0 39.0 L 434.0 39.0 L 436.0 39.0 L 437.0 40.0 L 438.0 41.0 L 440.0 41.0 L 442.0 41.0 L 444.0 41.0 L 446.0 41.0 L 448.0 41.0 L 450.0 41.0 L 452.0 41.0 L 454.0 41.0 L 456.0 41.0 L 458.0 41.0 L 460.0 41.0 L 462.0 41.0 L 464.0 41.0 L 466.0 41.0 L 468.0 41.0 L 470.0 41.0 L 472.0 41.0 L 474.0 41.0 L 476.0 41.0 L 478.0 41.0 L 480.0 41.0 L 482.0 41.0 L 484.0 41.0 L 485.0 42.0 L 486.0 43.0 L 488.0 43.0 L 490.0 43.0 L 492.0 43.0 L 494.0 43.0 L 496.0 43.0 L 498.0 43.0 L 499.0 44.0 L 500.0 45.0 L 502.0 45.0 L 504.0 45.0 L 506.0 45.0 L 508.0 45.0 L 509.0 46.0 L 510.0 47.0 L 512.0 47.0 L 514.0 47.0 L 515.0 48.0 L 516.0 49.0 L 518.0 49.0 L 520.0 49.0 L 521.0 50.0 L 522.0 51.0 L 524.0 51.0 L 525.0 52.0 L 526.0 53.0 L 528.0 53.0 L 529.0 54.0 L 530.0 55.0 L 532.0 55.0 L 533.0 56.0 L 534.0 57.0 L 536.0 57.0 L 537.0 58.0 L 538.0 59.0 L 539.0 60.0 L 540.0 61.0 L 542.0 61.0 L 543.0 62.0 L 544.0 63.0 L 545.0 64.0 L 546.0 65.0 L 547.0 66.0 L 548.0 67.0 L 549.0 68.0 L 550.0 69.0 L 551.0 70.0 L 552.0 71.0 L 553.0 72.0 L 554.0 73.0 L 555.0 74.0 L 556.0 75.0 L 557.0 76.0 L 558.0 77.0 L 559.0 78.0 L 560.0 79.0 L 561.0 80.0 L 561.0 82.0 L 562.0 83.0 L 563.0 84.0 L 564.0 85.0 L 565.0 86.0 L 565.0 88.0 L 566.0 89.0 L 567.0 90.0 L 567.0 92.0 L 568.0 93.0 L 569.0 94.0 L 569.0 96.0 L 570.0 97.0 L 571.0 98.0 L 571.0 100.0 L 571.0 102.0 L 572.0 103.0 L 573.0 104.0 L 573.0 106.0 L 573.0 108.0 L 574.0 109.0 L 575.0 110.0 L 575.0 112.0 L 575.0 114.0 L 575.0 116.0 L 575.0 118.0 L 576.0 119.0 L 577.0 120.0 L 577.0 122.0 L 577.0 124.0 L 577.0 126.0 L 577.0 128.0 L 577.0 130.0 L 577.0 132.0 L 577.0 134.0 L 577.0 136.0 L 577.0 138.0 L 577.0 140.0 L 577.0 142.0 L 577.0 144.0 L 577.0 146.0 L 577.0 148.0 L 577.0 150.0 L 577.0 152.0 L 577.0 154.0 L 577.0 156.0 L 577.0 158.0 L 577.0 160.0 L 577.0 162.0 L 577.0 164.0 L 576.0 165.0 L 575.0 166.0 L 575.0 168.0 L 575.0 170.0 L 575.0 172.0 L 575.0 174.0 L 575.0 176.0 L 574.0 177.0 L 573.0 178.0 L 573.0 180.0 L 573.0 182.0 L 573.0 184.0 L 573.0 186.0 L 572.0 187.0 L 571.0 188.0 L 571.0 190.0 L 571.0 192.0 L 570.0 193.0 L 569.0 194.0 L 569.0 196.0 L 569.0 198.0 L 568.0 199.0 L 567.0 200.0 L 567.0 202.0 L 566.0 203.0 L 565.0 204.0 L 565.0 206.0 L 565.0 208.0 L 564.0 209.0 L 563.0 210.0 L 563.0 212.0 L 562.0 213.0 L 561.0 214.0 L 560.0 215.0 L 559.0 216.0 L 559.0 218.0 L 558.0 219.0 L 557.0 220.0 L 557.0 222.0 L 556.0 223.0 L 555.0 224.0 L 555.0 226.0 L 554.0 227.0 L 553.0 228.0 L 552.0 229.0 L 551.0 230.0 L 551.0 232.0 L 550.0 233.0 L 549.0 234.0 L 548.0 235.0 L 547.0 236.0 L 546.0 237.0 L 545.0 238.0 L 544.0 239.0 L 543.0 240.0 L 543.0 242.0 L 542.0 243.0 L 541.0 244.0 L 540.0 245.0 L 539.0 246.0 L 538.0 247.0 L 537.0 248.0 L 536.0 249.0 L 535.0 250.0 L 534.0 251.0 L 533.0 252.0 L 532.0 253.0 L 531.0 254.0 L 530.0 255.0 L 529.0 256.0 L 528.0 257.0 L 526.0 257.0 L 525.0 258.0 L 524.0 259.0 L 523.0 260.0 L 522.0 261.0 L 521.0 262.0 L 520.0 263.0 L 518.0 263.0 L 517.0 264.0 L 516.0 265.0 L 515.0 266.0 L 514.0 267.0 L 512.0 267.0 L 511.0 268.0 L 510.0 269.0 L 508.0 269.0 L 507.0 270.0 L 506.0 271.0 L 505.0 272.0 L 504.0 273.0 L 502.0 273.0 L 501.0 274.0 L 500.0 275.0 L 498.0 275.0 L 496.0 275.0 L 495.0 276.0 L 494.0 277.0 L 492.0 277.0 L 491.0 278.0 L 490.0 279.0 L 488.0 279.0 L 486.0 279.0 L 485.0 280.0 L 484.0 281.0 L 482.0 281.0 L 480.0 281.0 L 478.0 281.0 L 477.0 282.0 L 476.0 283.0 L 474.0 283.0 L 472.0 283.0 L 470.0 283.0 L 469.0 284.0 L 468.0 285.0 L 466.0 285.0 L 464.0 285.0 L 462.0 285.0 L 460.0 285.0 L 459.0 286.0 L 458.0 287.0 L 456.0 287.0 L 454.0 287.0 L 452.0 287.0 L 450.0 287.0 L 448.0 287.0 L 446.0 287.0 L 444.0 287.0 L 442.0 287.0 L 441.0 288.0 L 440.0 289.0 L 438.0 289.0 L 436.0 289.0 L 434.0 289.0 L 432.0 289.0 L 430.0 289.0 L 428.0 289.0 L 426.0 289.0 L 424.0 289.0 L 422.0 289.0 L 420.0 289.0 L 418.0 289.0 L 416.0 289.0 L 414.0 289.0 L 412.0 289.0 L 410.0 289.0 L 408.0 289.0 L 406.0 289.0 L 404.0 289.0 L 402.0 289.0 L 400.0 289.0 L 398.0 289.0 L 396.0 289.0 L 394.0 289.0 L 392.0 289.0 L 390.0 289.0 L 388.0 289.0 L 386.0 289.0 L 384.0 289.0 L 383.0 290.0 L 382.0 291.0 L 381.0 292.0 L 381.0 294.0 L 381.0 296.0 L 380.0 297.0 L 379.0 298.0 L 379.0 300.0 L 378.0 301.0 L 377.0 302.0 L 377.0 304.0 L 377.0 306.0 L 376.0 307.0 L 375.0 308.0 L 375.0 310.0 L 375.0 312.0 L 374.0 313.0 L 373.0 314.0 L 373.0 316.0 L 372.0 317.0 L 371.0 318.0 L 371.0 320.0 L 371.0 322.0 L 370.0 323.0 L 369.0 324.0 L 369.0 326.0 L 369.0 328.0 L 368.0 329.0 L 367.0 330.0 L 367.0 332.0 L 367.0 334.0 L 366.0 335.0 L 365.0 336.0 L 365.0 338.0 L 365.0 340.0 L 364.0 341.0 L 363.0 342.0 L 363.0 344.0 L 362.0 345.0 L 361.0 346.0 L 361.0 348.0 L 361.0 350.0 L 361.0 352.0 L 360.0 353.0 L 359.0 354.0 L 359.0 356.0 L 358.0 357.0 L 357.0 358.0 L 357.0 360.0 L 357.0 362.0 L 356.0 363.0 L 355.0 364.0 L 355.0 366.0 L 355.0 368.0 L 354.0 369.0 L 353.0 370.0 L 353.0 372.0 L 353.0 374.0 L 352.0 375.0 L 351.0 376.0 L 351.0 378.0 L 350.0 379.0 L 349.0 380.0 L 349.0 382.0 L 349.0 384.0 L 348.0 385.0 L 347.0 386.0 L 347.0 388.0 L 346.0 389.0 L 345.0 390.0 L 344.0 391.0 L 343.0 392.0 L 342.0 393.0 Z"/>
    <path d="M 351.0 322.0 L 351.0 320.0 L 351.0 318.0 L 352.0 317.0 L 353.0 316.0 L 353.0 314.0 L 353.0 312.0 L 354.0 311.0 L 355.0 310.0 L 355.0 308.0 L 356.0 307.0 L 357.0 306.0 L 357.0 304.0 L 357.0 302.0 L 358.0 301.0 L 359.0 300.0 L 359.0 298.0 L 360.0 297.0 L 361.0 296.0 L 361.0 294.0 L 361.0 292.0 L 362.0 291.0 L 363.0 290.0 L 363.0 288.0 L 363.0 286.0 L 364.0 285.0 L 365.0 284.0 L 365.0 282.0 L 366.0 281.0 L 367.0 280.0 L 367.0 278.0 L 367.0 276.0 L 368.0 275.0 L 369.0 274.0 L 369.0 272.0 L 370.0 271.0 L 371.0 270.0 L 371.0 268.0 L 371.0 266.0 L 372.0 265.0 L 373.0 264.0 L 373.0 262.0 L 374.0 261.0 L 375.0 260.0 L 375.0 258.0 L 375.0 256.0 L 376.0 255.0 L 377.0 254.0 L 377.0 252.0 L 377.0 250.0 L 378.0 249.0 L 379.0 248.0 L 379.0 246.0 L 380.0 245.0 L 381.0 244.0 L 381.0 242.0 L 381.0 240.0 L 382.0 239.0 L 383.0 238.0 L 383.0 236.0 L 384.0 235.0 L 385.0 234.0 L 385.0 232.0 L 386.0 231.0 L 388.0 231.0 L 390.0 231.0 L 392.0 231.0 L 394.0 231.0 L 396.0 231.0 L 398.0 231.0 L 400.0 231.0 L 402.0 231.0 L 404.0 231.0 L 406.0 231.0 L 408.0 231.0 L 410.0 231.0 L 412.0 231.0 L 414.0 231.0 L 416.0 231.0 L 418.0 231.0 L 420.0 231.0 L 422.0 231.0 L 424.0 231.0 L 426.0 231.0 L 428.0 231.0 L 430.0 231.0 L 432.0 231.0 L 434.0 231.0 L 435.0 230.0 L 436.0 229.0 L 438.0 229.0 L 440.0 229.0 L 442.0 229.0 L 444.0 229.0 L 445.0 228.0 L 446.0 227.0 L 448.0 227.0 L 450.0 227.0 L 452.0 227.0 L 453.0 226.0 L 454.0 225.0 L 456.0 225.0 L 457.0 224.0 L 458.0 223.0 L 460.0 223.0 L 462.0 223.0 L 463.0 222.0 L 464.0 221.0 L 466.0 221.0 L 467.0 220.0 L 468.0 219.0 L 470.0 219.0 L 471.0 218.0 L 472.0 217.0 L 473.0 216.0 L 474.0 215.0 L 475.0 214.0 L 476.0 213.0 L 478.0 213.0 L 479.0 212.0 L 480.0 211.0 L 481.0 210.0 L 482.0 209.0 L 483.0 208.0 L 484.0 207.0 L 485.0 206.0 L 486.0 205.0 L 487.0 204.0 L 488.0 203.0 L 489.0 202.0 L 490.0 201.0 L 491.0 200.0 L 491.0 198.0 L 492.0 197.0 L 493.0 196.0 L 494.0 195.0 L 495.0 194.0 L 495.0 192.0 L 496.0 191.0 L 497.0 190.0 L 497.0 188.0 L 498.0 187.0 L 499.0 186.0 L 499.0 184.0 L 500.0 183.0 L 501.0 182.0 L 501.0 180.0 L 501.0 178.0 L 502.0 177.0 L 503.0 176.0 L 503.0 174.0 L 503.0 172.0 L 504.0 171.0 L 505.0 170.0 L 505.0 168.0 L 505.0 166.0 L 505.0 164.0 L 505.0 162.0 L 505.0 160.0 L 506.0 159.0 L 507.0 158.0 L 507.0 156.0 L 507.0 154.0 L 507.0 152.0 L 507.0 150.0 L 507.0 148.0 L 506.0 147.0 L 505.0 146.0 L 505.0 144.0 L 505.0 142.0 L 505.0 140.0 L 505.0 138.0 L 505.0 136.0 L 505.0 134.0 L 504.0 133.0 L 503.0 132.0 L 503.0 130.0 L 502.0 129.0 L 501.0 128.0 L 501.0 126.0 L 500.0 125.0 L 499.0 124.0 L 499.0 122.0 L 498.0 121.0 L 497.0 120.0 L 496.0 119.0 L 495.0 118.0 L 494.0 117.0 L 493.0 116.0 L 492.0 115.0 L 491.0 114.0 L 490.0 113.0 L 489.0 112.0 L 488.0 111.0 L 487.0 110.0 L 486.0 109.0 L 484.0 109.0 L 483.0 108.0 L 482.0 107.0 L 480.0 107.0 L 478.0 107.0 L 477.0 106.0 L 476.0 105.0 L 474.0 105.0 L 473.0 104.0 L 472.0 103.0 L 470.0 103.0 L 468.0 103.0 L 466.0 103.0 L 464.0 103.0 L 463.0 102.0 L 462.0 101.0 L 460.0 101.0 L 458.0 101.0 L 456.0 101.0 L 454.0 101.0 L 452.0 101.0 L 450.0 101.0 L 448.0 101.0 L 446.0 101.0 L 444.0 101.0 L 442.0 101.0 L 440.0 101.0 L 438.0 101.0 L 436.0 101.0 L 434.0 101.0 L 432.0 101.0 L 430.0 101.0 L 428.0 101.0 L 426.0 101.0 L 424.0 101.0 L 422.0 101.0 L 420.0 101.0 L 418.0 101.0 L 416.0 101.0 L 414.0 101.0 L 412.0 101.0 L 410.0 101.0 L 408.0 101.0 L 406.0 101.0 L 404.0 101.0 L 402.0 101.0 L 400.0 101.0 L 398.0 101.0 L 396.0 101.0 L 394.0 101.0 L 392.0 101.0 L 390.0 101.0 L 388.0 101.0 L 386.0 101.0 L 384.0 101.0 L 382.0 101.0 L 380.0 101.0 L 378.0 101.0 L 376.0 101.0 L 374.0 101.0 L 372.0 101.0 L 370.0 101.0 L 368.0 101.0 L 366.0 101.0 L 364.0 101.0 L 362.0 101.0 L 360.0 101.0 L 358.0 101.0 L 356.0 101.0 L 354.0 101.0 L 352.0 101.0 L 350.0 101.0 L 348.0 101.0 L 346.0 101.0 L 344.0 101.0 L 342.0 101.0 L 340.0 101.0 L 338.0 101.0 L 336.0 101.0 L 334.0 101.0 L 332.0 101.0 L 330.0 101.0 L 328.0 101.0 L 326.0 101.0 L 324.0 101.0 L 322.0 101.0 L 320.0 101.0 L 318.0 101.0 L 316.0 101.0 L 314.0 101.0 L 312.0 101.0 L 310.0 101.0 L 308.0 101.0 L 306.0 101.0 L 305.0 102.0 L 305.0 104.0 L 304.0 105.0 L 303.0 106.0 L 303.0 108.0 L 303.0 110.0 L 302.0 111.0 L 301.0 112.0 L 302.0 113.0 L 303.0 114.0 L 302.0 115.0 L 301.0 116.0 L 301.0 118.0 L 301.0 120.0 L 300.0 121.0 L 299.0 122.0 L 299.0 124.0 L 299.0 126.0 L 299.0 128.0 L 299.0 130.0 L 298.0 131.0 L 297.0 132.0 L 298.0 133.0 L 299.0 134.0 L 298.0 135.0 L 297.0 136.0 L 297.0 138.0 L 297.0 140.0 L 296.0 141.0 L 295.0 142.0 L 296.0 143.0 L 297.0 144.0 L 296.0 145.0 L 295.0 146.0 L 295.0 148.0 L 295.0 150.0 L 295.0 152.0 L 294.0 153.0 L 293.0 154.0 L 293.0 156.0 L 293.0 158.0 L 292.0 159.0 L 291.0 160.0 L 291.0 162.0 L 291.0 164.0 L 291.0 166.0 L 291.0 168.0 L 290.0 169.0 L 289.0 170.0 L 289.0 172.0 L 289.0 174.0 L 289.0 176.0 L 289.0 178.0 L 288.0 179.0 L 287.0 180.0 L 287.0 182.0 L 287.0 184.0 L 287.0 186.0 L 287.0 188.0 L 286.0 189.0 L 285.0 190.0 L 285.0 192.0 L 285.0 194.0 L 285.0 196.0 L 285.0 198.0 L 284.0 199.0 L 283.0 200.0 L 283.0 202.0 L 283.0 204.0 L 283.0 206.0 L 282.0 207.0 L 281.0 208.0 L 281.0 210.0 L 281.0 212.0 L 281.0 214.0 L 281.0 216.0 L 280.0 217.0 L 279.0 218.0 L 279.0 220.0 L 279.0 222.0 L 279.0 224.0 L 279.0 226.0 L 278.0 227.0 L 277.0 228.0 L 277.0 230.0 L 277.0 232.0 L 277.0 234.0 L 277.0 236.0 L 276.0 237.0 L 275.0 238.0 L 275.0 240.0 L 275.0 242.0 L 275.0 244.0 L 274.0 245.0 L 273.0 246.0 L 273.0 248.0 L 273.0 250.0 L 273.0 252.0 L 273.0 254.0 L 273.0 256.0 L 272.0 257.0 L 271.0 258.0 L 271.0 260.0 L 271.0 262.0 L 271.0 264.0 L 270.0 265.0 L 269.0 266.0 L 269.0 268.0 L 270.0 269.0 L 272.0 269.0 L 274.0 269.0 L 276.0 269.0 L 278.0 269.0 L 280.0 269.0 L 282.0 269.0 L 283.0 268.0 L 283.0 266.0 L 284.0 265.0 L 285.0 264.0 L 285.0 262.0 L 286.0 261.0 L 287.0 260.0 L 287.0 258.0 L 288.0 257.0 L 289.0 256.0 L 289.0 254.0 L 290.0 253.0 L 291.0 252.0 L 291.0 250.0 L 291.0 248.0 L 292.0 247.0 L 293.0 246.0 L 293.0 244.0 L 294.0 243.0 L 295.0 242.0 L 295.0 240.0 L 296.0 239.0 L 297.0 238.0 L 297.0 236.0 L 297.0 234.0 L 298.0 233.0 L 299.0 232.0 L 299.0 230.0 L 300.0 229.0 L 301.0 228.0 L 301.0 226.0 L 301.0 224.0 L 302.0 223.0 L 303.0 222.0 L 303.0 220.0 L 303.0 218.0 L 304.0 217.0 L 305.0 216.0 L 305.0 214.0 L 306.0 213.0 L 307.0 212.0 L 307.0 210.0 L 308.0 209.0 L 309.0 208.0 L 309.0 206.0 L 309.0 204.0 L 310.0 203.0 L 311.0 202.0 L 311.0 200.0 L 312.0 199.0 L 313.0 198.0 L 313.0 196.0 L 313.0 194.0 L 314.0 193.0 L 315.0 192.0 L 315.0 190.0 L 316.0 189.0 L 317.0 188.0 L 317.0 186.0 L 317.0 184.0 L 318.0 183.0 L 319.0 182.0 L 319.0 180.0 L 320.0 179.0 L 321.0 178.0 L 321.0 176.0 L 321.0 174.0 L 322.0 173.0 L 323.0 172.0 L 323.0 170.0 L 324.0 169.0 L 325.0 168.0 L 325.0 166.0 L 325.0 164.0 L 326.0 163.0 L 327.0 162.0 L 327.0 160.0 L 328.0 159.0 L 329.0 158.0 L 329.0 156.0 L 330.0 155.0 L 331.0 154.0 L 331.0 152.0 L 332.0 151.0 L 333.0 150.0 L 333.0 148.0 L 334.0 147.0 L 335.0 146.0 L 336.0 145.0 L 338.0 145.0 L 339.0 144.0 L 340.0 143.0 L 341.0 144.0 L 342.0 145.0 L 344.0 145.0 L 345.0 146.0 L 346.0 147.0 L 347.0 148.0 L 347.0 150.0 L 348.0 151.0 L 349.0 152.0 L 349.0 154.0 L 349.0 156.0 L 349.0 158.0 L 349.0 160.0 L 349.0 162.0 L 349.0 164.0 L 349.0 166.0 L 349.0 168.0 L 349.0 170.0 L 349.0 172.0 L 349.0 174.0 L 349.0 176.0 L 349.0 178.0 L 349.0 180.0 L 349.0 182.0 L 349.0 184.0 L 349.0 186.0 L 349.0 188.0 L 349.0 190.0 L 349.0 192.0 L 349.0 194.0 L 349.0 196.0 L 349.0 198.0 L 349.0 200.0 L 349.0 202.0 L 349.0 204.0 L 349.0 206.0 L 349.0 208.0 L 349.0 210.0 L 349.0 212.0 L 349.0 214.0 L 349.0 216.0 L 349.0 218.0 L 349.0 220.0 L 349.0 222.0 L 349.0 224.0 L 349.0 226.0 L 349.0 228.0 L 349.0 230.0 L 349.0 232.0 L 349.0 234.0 L 349.0 236.0 L 349.0 238.0 L 349.0 240.0 L 349.0 242.0 L 349.0 244.0 L 349.0 246.0 L 349.0 248.0 L 349.0 250.0 L 349.0 252.0 L 349.0 254.0 L 349.0 256.0 L 349.0 258.0 L 349.0 260.0 L 349.0 262.0 L 349.0 264.0 L 349.0 266.0 L 349.0 268.0 L 349.0 270.0 L 349.0 272.0 L 349.0 274.0 L 349.0 276.0 L 349.0 278.0 L 349.0 280.0 L 349.0 282.0 L 349.0 284.0 L 349.0 286.0 L 349.0 288.0 L 349.0 290.0 L 349.0 292.0 L 349.0 294.0 L 349.0 296.0 L 349.0 298.0 L 349.0 300.0 L 349.0 302.0 L 349.0 304.0 L 349.0 306.0 L 349.0 308.0 L 349.0 310.0 L 349.0 312.0 L 349.0 314.0 L 349.0 316.0 L 349.0 318.0 L 349.0 320.0 L 349.0 322.0 L 350.0 323.0 L 351.0 322.0 Z"/>
    <path d="M 158.0 477.0 L 156.0 477.0 L 155.0 476.0 L 155.0 474.0 L 155.0 472.0 L 155.0 470.0 L 155.0 468.0 L 155.0 466.0 L 156.0 465.0 L 157.0 464.0 L 157.0 462.0 L 157.0 460.0 L 157.0 458.0 L 158.0 457.0 L 159.0 456.0 L 159.0 454.0 L 159.0 452.0 L 159.0 450.0 L 159.0 448.0 L 160.0 447.0 L 161.0 446.0 L 161.0 444.0 L 161.0 442.0 L 161.0 440.0 L 161.0 438.0 L 162.0 437.0 L 163.0 436.0 L 163.0 434.0 L 163.0 432.0 L 163.0 430.0 L 163.0 428.0 L 164.0 427.0 L 165.0 426.0 L 165.0 424.0 L 165.0 422.0 L 165.0 420.0 L 166.0 419.0 L 167.0 418.0 L 167.0 416.0 L 167.0 414.0 L 167.0 412.0 L 168.0 411.0 L 169.0 410.0 L 169.0 408.0 L 169.0 406.0 L 169.0 404.0 L 169.0 402.0 L 170.0 401.0 L 171.0 400.0 L 171.0 398.0 L 171.0 396.0 L 171.0 394.0 L 171.0 392.0 L 172.0 391.0 L 173.0 390.0 L 173.0 388.0 L 173.0 386.0 L 173.0 384.0 L 174.0 383.0 L 175.0 382.0 L 175.0 380.0 L 175.0 378.0 L 175.0 376.0 L 175.0 374.0 L 176.0 373.0 L 177.0 372.0 L 177.0 370.0 L 177.0 368.0 L 178.0 367.0 L 179.0 366.0 L 179.0 364.0 L 179.0 362.0 L 179.0 360.0 L 179.0 358.0 L 180.0 357.0 L 181.0 356.0 L 181.0 354.0 L 181.0 352.0 L 181.0 350.0 L 182.0 349.0 L 183.0 348.0 L 183.0 346.0 L 183.0 344.0 L 183.0 342.0 L 183.0 340.0 L 184.0 339.0 L 185.0 338.0 L 185.0 336.0 L 185.0 334.0 L 185.0 332.0 L 186.0 331.0 L 187.0 330.0 L 187.0 328.0 L 187.0 326.0 L 187.0 324.0 L 187.0 322.0 L 188.0 321.0 L 189.0 320.0 L 189.0 318.0 L 189.0 316.0 L 190.0 315.0 L 192.0 315.0 L 194.0 315.0 L 196.0 315.0 L 198.0 315.0 L 200.0 315.0 L 202.0 315.0 L 204.0 315.0 L 206.0 315.0 L 208.0 315.0 L 210.0 315.0 L 212.0 315.0 L 214.0 315.0 L 216.0 315.0 L 218.0 315.0 L 220.0 315.0 L 222.0 315.0 L 224.0 315.0 L 226.0 315.0 L 228.0 315.0 L 230.0 315.0 L 232.0 315.0 L 234.0 315.0 L 236.0 315.0 L 238.0 315.0 L 240.0 315.0 L 242.0 315.0 L 244.0 315.0 L 246.0 315.0 L 248.0 315.0 L 250.0 315.0 L 252.0 315.0 L 254.0 315.0 L 256.0 315.0 L 258.0 315.0 L 259.0 316.0 L 258.0 317.0 L 257.0 318.0 L 257.0 320.0 L 257.0 322.0 L 257.0 324.0 L 257.0 326.0 L 256.0 327.0 L 255.0 328.0 L 255.0 330.0 L 255.0 332.0 L 255.0 334.0 L 254.0 335.0 L 253.0 336.0 L 253.0 338.0 L 253.0 340.0 L 253.0 342.0 L 253.0 344.0 L 252.0 345.0 L 251.0 346.0 L 251.0 348.0 L 251.0 350.0 L 251.0 352.0 L 250.0 353.0 L 249.0 354.0 L 249.0 356.0 L 249.0 358.0 L 249.0 360.0 L 249.0 362.0 L 248.0 363.0 L 247.0 364.0 L 247.0 366.0 L 247.0 368.0 L 247.0 370.0 L 247.0 372.0 L 246.0 373.0 L 245.0 374.0 L 245.0 376.0 L 245.0 378.0 L 245.0 380.0 L 244.0 381.0 L 243.0 382.0 L 243.0 384.0 L 243.0 386.0 L 242.0 387.0 L 241.0 388.0 L 242.0 389.0 L 243.0 390.0 L 242.0 391.0 L 241.0 392.0 L 241.0 394.0 L 241.0 396.0 L 241.0 398.0 L 240.0 399.0 L 239.0 400.0 L 239.0 402.0 L 239.0 404.0 L 239.0 406.0 L 238.0 407.0 L 237.0 408.0 L 237.0 410.0 L 237.0 412.0 L 236.0 413.0 L 235.0 414.0 L 236.0 415.0 L 237.0 416.0 L 236.0 417.0 L 235.0 418.0 L 235.0 420.0 L 235.0 422.0 L 234.0 423.0 L 233.0 424.0 L 233.0 426.0 L 233.0 428.0 L 232.0 429.0 L 231.0 430.0 L 231.0 432.0 L 231.0 434.0 L 230.0 435.0 L 229.0 436.0 L 229.0 438.0 L 229.0 440.0 L 228.0 441.0 L 227.0 442.0 L 226.0 443.0 L 225.0 444.0 L 225.0 446.0 L 224.0 447.0 L 223.0 448.0 L 222.0 449.0 L 221.0 450.0 L 220.0 451.0 L 219.0 452.0 L 218.0 453.0 L 217.0 454.0 L 216.0 455.0 L 214.0 455.0 L 213.0 456.0 L 212.0 457.0 L 211.0 458.0 L 210.0 459.0 L 208.0 459.0 L 207.0 460.0 L 206.0 461.0 L 204.0 461.0 L 203.0 462.0 L 202.0 463.0 L 200.0 463.0 L 199.0 464.0 L 198.0 465.0 L 196.0 465.0 L 194.0 465.0 L 193.0 466.0 L 192.0 467.0 L 190.0 467.0 L 189.0 468.0 L 188.0 469.0 L 186.0 469.0 L 184.0 469.0 L 182.0 469.0 L 180.0 469.0 L 179.0 470.0 L 178.0 471.0 L 176.0 471.0 L 174.0 471.0 L 173.0 472.0 L 172.0 473.0 L 170.0 473.0 L 168.0 473.0 L 167.0 474.0 L 166.0 475.0 L 164.0 475.0 L 162.0 475.0 L 160.0 475.0 L 159.0 476.0 L 158.0 477.0 Z"/>
  </g>
</svg>