<svg xmlns="http://www.w3.org/2000/svg" viewBox="0 0 800 312" width="1600" height="624">
  <g fill="white" fill-rule="evenodd">
    <path d="M 484.0 211.0 L 482.0 211.0 L 480.0 211.0 L 478.0 211.0 L 476.0 211.0 L 474.0 211.0 L 472.0 211.0 L 470.0 211.0 L 468.0 211.0 L 466.0 211.0 L 464.0 211.0 L 462.0 211.0 L 460.0 211.0 L 458.0 211.0 L 456.0 211.0 L 454.0 211.0 L 452.0 211.0 L 450.0 211.0 L 448.0 211.0 L 447.0 210.0 L 447.0 208.0 L 447.0 206.0 L 448.0 205.0 L 449.0 204.0 L 449.0 202.0 L 449.0 200.0 L 449.0 198.0 L 449.0 196.0 L 450.0 195.0 L 451.0 194.0 L 451.0 192.0 L 451.0 190.0 L 451.0 188.0 L 451.0 186.0 L 452.0 185.0 L 453.0 184.0 L 453.0 182.0 L 453.0 180.0 L 453.0 178.0 L 454.0 177.0 L 455.0 176.0 L 455.0 174.0 L 455.0 172.0 L 455.0 170.0 L 455.0 168.0 L 456.0 167.0 L 457.0 166.0 L 457.0 164.0 L 457.0 162.0 L 457.0 160.0 L 457.0 158.0 L 457.0 156.0 L 458.0 155.0 L 459.0 154.0 L 459.0 152.0 L 459.0 150.0 L 459.0 148.0 L 459.0 146.0 L 460.0 145.0 L 461.0 144.0 L 461.0 142.0 L 461.0 140.0 L 461.0 138.0 L 462.0 137.0 L 463.0 136.0 L 463.0 134.0 L 463.0 132.0 L 463.0 130.0 L 463.0 128.0 L 464.0 127.0 L 465.0 126.0 L 465.0 124.0 L 465.0 122.0 L 465.0 120.0 L 465.0 118.0 L 466.0 117.0 L 467.0 116.0 L 467.0 114.0 L 467.0 112.0 L 467.0 110.0 L 467.0 108.0 L 468.0 107.0 L 469.0 106.0 L 469.0 104.0 L 469.0 102.0 L 469.0 100.0 L 469.0 98.0 L 469.0 96.0 L 470.0 95.0 L 471.0 94.0 L 471.0 92.0 L 471.0 90.0 L 471.0 88.0 L 472.0 87.0 L 473.0 86.0 L 473.0 84.0 L 473.0 82.0 L 473.0 80.0 L 473.0 78.0 L 474.0 77.0 L 475.0 76.0 L 475.0 74.0 L 475.0 72.0 L 475.0 70.0 L 475.0 68.0 L 476.0 67.0 L 477.0 66.0 L 477.0 64.0 L 477.0 62.0 L 477.0 60.0 L 477.0 58.0 L 478.0 57.0 L 479.0 56.0 L 479.0 54.0 L 479.0 52.0 L 479.0 50.0 L 479.0 48.0 L 480.0 47.0 L 481.0 46.0 L 481.0 44.0 L 481.0 42.0 L 481.0 40.0 L 481.0 38.0 L 481.0 36.0 L 482.0 35.0 L 483.0 34.0 L 483.0 32.0 L 483.0 30.0 L 483.0 28.0 L 484.0 27.0 L 486.0 27.0 L 488.0 27.0 L 490.0 27.0 L 492.0 27.0 L 494.0 27.0 L 496.0 27.0 L 498.0 27.0 L 500.0 27.0 L 502.0 27.0 L 504.0 27.0 L 506.0 27.0 L 508.0 27.0 L 510.0 27.0 L 512.0 27.0 L 514.0 27.0 L 516.0 27.0 L 518.0 27.0 L 520.0 27.0 L 522.0 27.0 L 523.0 28.0 L 522.0 29.0 L 521.0 30.0 L 521.0 32.0 L 521.0 34.0 L 521.0 36.0 L 521.0 38.0 L 520.0 39.0 L 519.0 40.0 L 519.0 42.0 L 519.0 44.0 L 519.0 46.0 L 519.0 48.0 L 518.0 49.0 L 517.0 50.0 L 517.0 52.0 L 517.0 54.0 L 517.0 56.0 L 517.0 58.0 L 516.0 59.0 L 515.0 60.0 L 515.0 62.0 L 515.0 64.0 L 515.0 66.0 L 515.0 68.0 L 514.0 69.0 L 513.0 70.0 L 513.0 72.0 L 513.0 74.0 L 513.0 76.0 L 513.0 78.0 L 512.0 79.0 L 511.0 80.0 L 511.0 82.0 L 511.0 84.0 L 511.0 86.0 L 511.0 88.0 L 510.0 89.0 L 509.0 90.0 L 509.0 92.0 L 509.0 94.0 L 509.0 96.0 L 509.0 98.0 L 509.0 100.0 L 508.0 101.0 L 507.0 102.0 L 507.0 104.0 L 507.0 106.0 L 507.0 108.0 L 507.0 110.0 L 506.0 111.0 L 505.0 112.0 L 505.0 114.0 L 505.0 116.0 L 505.0 118.0 L 505.0 120.0 L 504.0 121.0 L 503.0 122.0 L 503.0 124.0 L 503.0 126.0 L 503.0 128.0 L 502.0 129.0 L 501.0 130.0 L 501.0 132.0 L 501.0 134.0 L 501.0 136.0 L 501.0 138.0 L 500.0 139.0 L 499.0 140.0 L 499.0 142.0 L 499.0 144.0 L 499.0 146.0 L 499.0 148.0 L 498.0 149.0 L 497.0 150.0 L 497.0 152.0 L 497.0 154.0 L 497.0 156.0 L 497.0 158.0 L 496.0 159.0 L 495.0 160.0 L 495.0 162.0 L 495.0 164.0 L 495.0 166.0 L 495.0 168.0 L 494.0 169.0 L 493.0 170.0 L 493.0 172.0 L 493.0 174.0 L 493.0 176.0 L 493.0 178.0 L 492.0 179.0 L 491.0 180.0 L 491.0 182.0 L 491.0 184.0 L 491.0 186.0 L 491.0 188.0 L 490.0 189.0 L 489.0 190.0 L 489.0 192.0 L 489.0 194.0 L 489.0 196.0 L 489.0 198.0 L 489.0 200.0 L 488.0 201.0 L 487.0 202.0 L 487.0 204.0 L 487.0 206.0 L 487.0 208.0 L 486.0 209.0 L 485.0 210.0 L 484.0 211.0 Z"/>
    <path d="M 178.0 211.0 L 176.0 211.0 L 175.0 210.0 L 174.0 209.0 L 173.0 208.0 L 172.0 207.0 L 171.0 206.0 L 170.0 205.0 L 169.0 204.0 L 169.0 202.0 L 169.0 200.0 L 169.0 198.0 L 169.0 196.0 L 169.0 194.0 L 169.0 192.0 L 169.0 190.0 L 169.0 188.0 L 169.0 186.0 L 169.0 184.0 L 169.0 182.0 L 169.0 180.0 L 169.0 178.0 L 169.0 176.0 L 169.0 174.0 L 169.0 172.0 L 169.0 170.0 L 169.0 168.0 L 169.0 166.0 L 169.0 164.0 L 169.0 162.0 L 169.0 160.0 L 169.0 158.0 L 169.0 156.0 L 169.0 154.0 L 169.0 152.0 L 169.0 150.0 L 169.0 148.0 L 169.0 146.0 L 169.0 144.0 L 169.0 142.0 L 169.0 140.0 L 169.0 138.0 L 169.0 136.0 L 169.0 134.0 L 170.0 133.0 L 171.0 132.0 L 170.0 131.0 L 169.0 130.0 L 168.0 129.0 L 167.0 130.0 L 166.0 131.0 L 165.0 132.0 L 165.0 134.0 L 164.0 135.0 L 163.0 136.0 L 163.0 138.0 L 162.0 139.0 L 161.0 140.0 L 161.0 142.0 L 160.0 143.0 L 159.0 144.0 L 159.0 146.0 L 158.0 147.0 L 157.0 148.0 L 157.0 150.0 L 156.0 151.0 L 155.0 152.0 L 155.0 154.0 L 154.0 155.0 L 153.0 156.0 L 153.0 158.0 L 152.0 159.0 L 151.0 160.0 L 150.0 161.0 L 148.0 161.0 L 146.0 161.0 L 144.0 161.0 L 142.0 161.0 L 140.0 161.0 L 138.0 161.0 L 136.0 161.0 L 134.0 161.0 L 132.0 161.0 L 130.0 161.0 L 128.0 161.0 L 126.0 161.0 L 124.0 161.0 L 122.0 161.0 L 120.0 161.0 L 118.0 161.0 L 116.0 161.0 L 114.0 161.0 L 112.0 161.0 L 110.0 161.0 L 108.0 161.0 L 106.0 161.0 L 104.0 161.0 L 102.0 161.0 L 100.0 161.0 L 98.0 161.0 L 96.0 161.0 L 94.0 161.0 L 92.0 161.0 L 90.0 161.0 L 88.0 161.0 L 86.0 161.0 L 84.0 161.0 L 82.0 161.0 L 80.0 161.0 L 78.0 161.0 L 76.0 161.0 L 74.0 161.0 L 72.0 161.0 L 70.0 161.0 L 68.0 161.0 L 66.0 161.0 L 64.0 161.0 L 62.0 161.0 L 60.0 161.0 L 58.0 161.0 L 56.0 161.0 L 54.0 161.0 L 52.0 161.0 L 50.0 161.0 L 48.0 161.0 L 46.0 161.0 L 44.0 161.0 L 42.0 161.0 L 40.0 161.0 L 38.0 161.0 L 36.0 161.0 L 34.0 161.0 L 32.0 161.0 L 30.0 161.0 L 29.0 160.0 L 28.0 159.0 L 27.0 158.0 L 27.0 156.0 L 27.0 154.0 L 27.0 152.0 L 28.0 151.0 L 30.0 151.0 L 31.0 150.0 L 32.0 149.0 L 34.0 149.0 L 36.0 149.0 L 38.0 149.0 L 40.0 149.0 L 42.0 149.0 L 44.0 149.0 L 46.0 149.0 L 48.0 149.0 L 50.0 149.0 L 52.0 149.0 L 54.0 149.0 L 56.0 149.0 L 58.0 149.0 L 60.0 149.0 L 62.0 149.0 L 64.0 149.0 L 66.0 149.0 L 68.0 149.0 L 70.0 149.0 L 72.0 149.0 L 74.0 149.0 L 76.0 149.0 L 78.0 149.0 L 80.0 149.0 L 82.0 149.0 L 84.0 149.0 L 86.0 149.0 L 88.0 149.0 L 90.0 149.0 L 92.0 149.0 L 94.0 149.0 L 96.0 149.0 L 98.0 149.0 L 100.0 149.0 L 102.0 149.0 L 104.0 149.0 L 106.0 149.0 L 107.0 148.0 L 108.0 147.0 L 109.0 146.0 L 109.0 144.0 L 109.0 142.0 L 109.0 140.0 L 110.0 139.0 L 111.0 138.0 L 111.0 136.0 L 111.0 134.0 L 111.0 132.0 L 112.0 131.0 L 113.0 130.0 L 113.0 128.0 L 113.0 126.0 L 113.0 124.0 L 113.0 122.0 L 114.0 121.0 L 115.0 120.0 L 115.0 118.0 L 115.0 116.0 L 115.0 114.0 L 116.0 113.0 L 117.0 112.0 L 117.0 110.0 L 117.0 108.0 L 117.0 106.0 L 117.0 104.0 L 118.0 103.0 L 119.0 102.0 L 119.0 100.0 L 119.0 98.0 L 119.0 96.0 L 119.0 94.0 L 120.0 93.0 L 121.0 92.0 L 121.0 90.0 L 121.0 88.0 L 121.0 86.0 L 121.0 84.0 L 122.0 83.0 L 123.0 82.0 L 123.0 80.0 L 123.0 78.0 L 123.0 76.0 L 123.0 74.0 L 124.0 73.0 L 125.0 72.0 L 125.0 70.0 L 125.0 68.0 L 125.0 66.0 L 125.0 64.0 L 126.0 63.0 L 127.0 62.0 L 127.0 60.0 L 127.0 58.0 L 127.0 56.0 L 127.0 54.0 L 128.0 53.0 L 129.0 52.0 L 129.0 50.0 L 129.0 48.0 L 129.0 46.0 L 129.0 44.0 L 129.0 42.0 L 130.0 41.0 L 131.0 40.0 L 131.0 38.0 L 132.0 37.0 L 133.0 36.0 L 134.0 35.0 L 136.0 35.0 L 138.0 35.0 L 140.0 35.0 L 141.0 36.0 L 142.0 37.0 L 144.0 37.0 L 146.0 37.0 L 148.0 37.0 L 150.0 37.0 L 152.0 37.0 L 154.0 37.0 L 156.0 37.0 L 158.0 37.0 L 160.0 37.0 L 162.0 37.0 L 164.0 37.0 L 166.0 37.0 L 168.0 37.0 L 170.0 37.0 L 172.0 37.0 L 174.0 37.0 L 176.0 37.0 L 178.0 37.0 L 180.0 37.0 L 182.0 37.0 L 184.0 37.0 L 186.0 37.0 L 188.0 37.0 L 189.0 36.0 L 190.0 35.0 L 192.0 35.0 L 194.0 35.0 L 196.0 35.0 L 198.0 35.0 L 200.0 35.0 L 202.0 35.0 L 204.0 35.0 L 206.0 35.0 L 208.0 35.0 L 210.0 35.0 L 212.0 35.0 L 214.0 35.0 L 216.0 35.0 L 218.0 35.0 L 220.0 35.0 L 222.0 35.0 L 224.0 35.0 L 226.0 35.0 L 228.0 35.0 L 230.0 35.0 L 232.0 35.0 L 234.0 35.0 L 236.0 35.0 L 237.0 36.0 L 238.0 37.0 L 240.0 37.0 L 242.0 37.0 L 244.0 37.0 L 246.0 37.0 L 248.0 37.0 L 250.0 37.0 L 252.0 37.0 L 254.0 37.0 L 255.0 38.0 L 256.0 39.0 L 258.0 39.0 L 260.0 39.0 L 261.0 40.0 L 262.0 41.0 L 264.0 41.0 L 265.0 42.0 L 266.0 43.0 L 268.0 43.0 L 270.0 43.0 L 271.0 44.0 L 272.0 45.0 L 273.0 46.0 L 274.0 47.0 L 276.0 47.0 L 277.0 48.0 L 278.0 49.0 L 279.0 50.0 L 280.0 51.0 L 281.0 52.0 L 282.0 53.0 L 283.0 54.0 L 284.0 55.0 L 285.0 56.0 L 286.0 57.0 L 287.0 58.0 L 287.0 60.0 L 288.0 61.0 L 289.0 62.0 L 289.0 64.0 L 290.0 65.0 L 291.0 66.0 L 291.0 68.0 L 292.0 69.0 L 293.0 70.0 L 293.0 72.0 L 293.0 74.0 L 294.0 75.0 L 295.0 76.0 L 295.0 78.0 L 295.0 80.0 L 295.0 82.0 L 295.0 84.0 L 296.0 85.0 L 297.0 86.0 L 297.0 88.0 L 297.0 90.0 L 297.0 92.0 L 297.0 94.0 L 297.0 96.0 L 296.0 97.0 L 295.0 98.0 L 295.0 100.0 L 295.0 102.0 L 295.0 104.0 L 295.0 106.0 L 295.0 108.0 L 294.0 109.0 L 293.0 110.0 L 293.0 112.0 L 293.0 114.0 L 292.0 115.0 L 291.0 116.0 L 291.0 118.0 L 291.0 120.0 L 290.0 121.0 L 289.0 122.0 L 289.0 124.0 L 288.0 125.0 L 287.0 126.0 L 287.0 128.0 L 286.0 129.0 L 285.0 130.0 L 284.0 131.0 L 283.0 132.0 L 283.0 134.0 L 282.0 135.0 L 281.0 136.0 L 280.0 137.0 L 279.0 138.0 L 278.0 139.0 L 277.0 140.0 L 276.0 141.0 L 275.0 142.0 L 274.0 143.0 L 273.0 144.0 L 272.0 145.0 L 271.0 146.0 L 270.0 147.0 L 268.0 147.0 L 267.0 148.0 L 266.0 149.0 L 265.0 150.0 L 264.0 151.0 L 262.0 151.0 L 261.0 152.0 L 260.0 153.0 L 258.0 153.0 L 257.0 154.0 L 256.0 155.0 L 254.0 155.0 L 253.0 156.0 L 252.0 157.0 L 250.0 157.0 L 249.0 158.0 L 248.0 159.0 L 246.0 159.0 L 244.0 159.0 L 242.0 159.0 L 241.0 160.0 L 240.0 161.0 L 238.0 161.0 L 236.0 161.0 L 234.0 161.0 L 232.0 161.0 L 230.0 161.0 L 228.0 161.0 L 227.0 162.0 L 226.0 163.0 L 224.0 163.0 L 222.0 163.0 L 220.0 163.0 L 218.0 163.0 L 216.0 163.0 L 214.0 163.0 L 212.0 163.0 L 210.0 163.0 L 208.0 163.0 L 206.0 163.0 L 204.0 163.0 L 202.0 163.0 L 200.0 163.0 L 199.0 164.0 L 198.0 165.0 L 197.0 166.0 L 196.0 167.0 L 195.0 168.0 L 195.0 170.0 L 194.0 171.0 L 193.0 172.0 L 193.0 174.0 L 193.0 176.0 L 192.0 177.0 L 191.0 178.0 L 191.0 180.0 L 191.0 182.0 L 190.0 183.0 L 189.0 184.0 L 189.0 186.0 L 188.0 187.0 L 187.0 188.0 L 187.0 190.0 L 187.0 192.0 L 186.0 193.0 L 185.0 194.0 L 185.0 196.0 L 185.0 198.0 L 184.0 199.0 L 183.0 200.0 L 183.0 202.0 L 182.0 203.0 L 181.0 204.0 L 181.0 206.0 L 180.0 207.0 L 179.0 208.0 L 179.0 210.0 L 178.0 211.0 Z"/>
    <path d="M 185.0 166.0 L 186.0 165.0 L 187.0 164.0 L 187.0 162.0 L 188.0 161.0 L 189.0 160.0 L 189.0 158.0 L 189.0 156.0 L 189.0 154.0 L 190.0 153.0 L 191.0 152.0 L 191.0 150.0 L 191.0 148.0 L 192.0 147.0 L 193.0 146.0 L 193.0 144.0 L 193.0 142.0 L 194.0 141.0 L 195.0 140.0 L 195.0 138.0 L 195.0 136.0 L 195.0 134.0 L 196.0 133.0 L 197.0 132.0 L 197.0 130.0 L 198.0 129.0 L 200.0 129.0 L 202.0 129.0 L 204.0 129.0 L 206.0 129.0 L 208.0 129.0 L 210.0 129.0 L 212.0 129.0 L 214.0 129.0 L 216.0 129.0 L 218.0 129.0 L 220.0 129.0 L 222.0 129.0 L 224.0 129.0 L 226.0 129.0 L 228.0 129.0 L 229.0 128.0 L 230.0 127.0 L 232.0 127.0 L 234.0 127.0 L 236.0 127.0 L 237.0 126.0 L 238.0 125.0 L 240.0 125.0 L 241.0 124.0 L 242.0 123.0 L 243.0 122.0 L 244.0 121.0 L 246.0 121.0 L 247.0 120.0 L 248.0 119.0 L 249.0 118.0 L 249.0 116.0 L 250.0 115.0 L 251.0 114.0 L 252.0 113.0 L 253.0 112.0 L 253.0 110.0 L 254.0 109.0 L 255.0 108.0 L 255.0 106.0 L 255.0 104.0 L 255.0 102.0 L 255.0 100.0 L 256.0 99.0 L 257.0 98.0 L 257.0 96.0 L 257.0 94.0 L 257.0 92.0 L 257.0 90.0 L 256.0 89.0 L 255.0 88.0 L 255.0 86.0 L 255.0 84.0 L 255.0 82.0 L 254.0 81.0 L 253.0 80.0 L 252.0 79.0 L 251.0 78.0 L 250.0 77.0 L 249.0 76.0 L 248.0 75.0 L 247.0 74.0 L 246.0 73.0 L 245.0 72.0 L 244.0 71.0 L 242.0 71.0 L 240.0 71.0 L 239.0 70.0 L 238.0 69.0 L 236.0 69.0 L 234.0 69.0 L 232.0 69.0 L 230.0 69.0 L 228.0 69.0 L 226.0 69.0 L 224.0 69.0 L 222.0 69.0 L 220.0 69.0 L 218.0 69.0 L 216.0 69.0 L 214.0 69.0 L 212.0 69.0 L 210.0 69.0 L 208.0 69.0 L 206.0 69.0 L 204.0 69.0 L 202.0 69.0 L 200.0 69.0 L 198.0 69.0 L 196.0 69.0 L 194.0 69.0 L 192.0 69.0 L 190.0 69.0 L 188.0 69.0 L 186.0 69.0 L 184.0 69.0 L 182.0 69.0 L 180.0 69.0 L 178.0 69.0 L 176.0 69.0 L 174.0 69.0 L 172.0 69.0 L 170.0 69.0 L 168.0 69.0 L 166.0 69.0 L 164.0 69.0 L 162.0 69.0 L 161.0 70.0 L 160.0 71.0 L 159.0 72.0 L 159.0 74.0 L 159.0 76.0 L 159.0 78.0 L 159.0 80.0 L 159.0 82.0 L 158.0 83.0 L 157.0 84.0 L 157.0 86.0 L 157.0 88.0 L 157.0 90.0 L 156.0 91.0 L 155.0 92.0 L 155.0 94.0 L 155.0 96.0 L 155.0 98.0 L 155.0 100.0 L 154.0 101.0 L 153.0 102.0 L 153.0 104.0 L 153.0 106.0 L 153.0 108.0 L 153.0 110.0 L 152.0 111.0 L 151.0 112.0 L 151.0 114.0 L 151.0 116.0 L 151.0 118.0 L 150.0 119.0 L 149.0 120.0 L 149.0 122.0 L 149.0 124.0 L 149.0 126.0 L 149.0 128.0 L 149.0 130.0 L 148.0 131.0 L 147.0 132.0 L 147.0 134.0 L 147.0 136.0 L 147.0 138.0 L 146.0 139.0 L 145.0 140.0 L 145.0 142.0 L 145.0 144.0 L 145.0 146.0 L 145.0 148.0 L 146.0 149.0 L 147.0 150.0 L 148.0 151.0 L 149.0 150.0 L 150.0 149.0 L 151.0 148.0 L 151.0 146.0 L 152.0 145.0 L 153.0 144.0 L 153.0 142.0 L 154.0 141.0 L 155.0 140.0 L 155.0 138.0 L 155.0 136.0 L 156.0 135.0 L 157.0 134.0 L 157.0 132.0 L 158.0 131.0 L 159.0 130.0 L 159.0 128.0 L 160.0 127.0 L 161.0 126.0 L 161.0 124.0 L 162.0 123.0 L 163.0 122.0 L 163.0 120.0 L 164.0 119.0 L 165.0 118.0 L 165.0 116.0 L 165.0 114.0 L 166.0 113.0 L 167.0 112.0 L 167.0 110.0 L 168.0 109.0 L 169.0 108.0 L 169.0 106.0 L 170.0 105.0 L 171.0 104.0 L 171.0 102.0 L 171.0 100.0 L 172.0 99.0 L 173.0 98.0 L 173.0 96.0 L 174.0 95.0 L 176.0 95.0 L 178.0 95.0 L 180.0 95.0 L 181.0 96.0 L 181.0 98.0 L 182.0 99.0 L 183.0 100.0 L 182.0 101.0 L 181.0 102.0 L 181.0 104.0 L 181.0 106.0 L 181.0 108.0 L 181.0 110.0 L 181.0 112.0 L 181.0 114.0 L 181.0 116.0 L 181.0 118.0 L 181.0 120.0 L 181.0 122.0 L 181.0 124.0 L 181.0 126.0 L 181.0 128.0 L 181.0 130.0 L 181.0 132.0 L 181.0 134.0 L 181.0 136.0 L 181.0 138.0 L 181.0 140.0 L 181.0 142.0 L 181.0 144.0 L 181.0 146.0 L 181.0 148.0 L 181.0 150.0 L 181.0 152.0 L 181.0 154.0 L 181.0 156.0 L 181.0 158.0 L 181.0 160.0 L 181.0 162.0 L 181.0 164.0 L 182.0 165.0 L 183.0 166.0 L 184.0 167.0 L 185.0 166.0 Z"/>
    <path d="M 574.0 213.0 L 572.0 213.0 L 570.0 213.0 L 568.0 213.0 L 566.0 213.0 L 564.0 213.0 L 562.0 213.0 L 560.0 213.0 L 558.0 213.0 L 556.0 213.0 L 554.0 213.0 L 552.0 213.0 L 550.0 213.0 L 548.0 213.0 L 546.0 213.0 L 544.0 213.0 L 542.0 213.0 L 541.0 212.0 L 540.0 211.0 L 538.0 211.0 L 536.0 211.0 L 534.0 211.0 L 532.0 211.0 L 530.0 211.0 L 529.0 210.0 L 528.0 209.0 L 526.0 209.0 L 524.0 209.0 L 522.0 209.0 L 521.0 208.0 L 520.0 207.0 L 518.0 207.0 L 517.0 206.0 L 516.0 205.0 L 514.0 205.0 L 513.0 204.0 L 512.0 203.0 L 510.0 203.0 L 508.0 203.0 L 507.0 202.0 L 506.0 201.0 L 505.0 200.0 L 504.0 199.0 L 503.0 198.0 L 504.0 197.0 L 505.0 196.0 L 505.0 194.0 L 506.0 193.0 L 507.0 192.0 L 507.0 190.0 L 508.0 189.0 L 509.0 188.0 L 509.0 186.0 L 510.0 185.0 L 511.0 184.0 L 511.0 182.0 L 512.0 181.0 L 513.0 180.0 L 513.0 178.0 L 514.0 177.0 L 515.0 176.0 L 515.0 174.0 L 516.0 173.0 L 517.0 172.0 L 518.0 171.0 L 520.0 171.0 L 521.0 172.0 L 522.0 173.0 L 524.0 173.0 L 525.0 174.0 L 526.0 175.0 L 528.0 175.0 L 529.0 176.0 L 530.0 177.0 L 532.0 177.0 L 534.0 177.0 L 535.0 178.0 L 536.0 179.0 L 538.0 179.0 L 540.0 179.0 L 541.0 180.0 L 542.0 181.0 L 544.0 181.0 L 546.0 181.0 L 548.0 181.0 L 550.0 181.0 L 551.0 182.0 L 552.0 183.0 L 554.0 183.0 L 556.0 183.0 L 558.0 183.0 L 560.0 183.0 L 562.0 183.0 L 564.0 183.0 L 566.0 183.0 L 568.0 183.0 L 570.0 183.0 L 572.0 183.0 L 573.0 182.0 L 574.0 181.0 L 576.0 181.0 L 578.0 181.0 L 580.0 181.0 L 581.0 180.0 L 582.0 179.0 L 583.0 178.0 L 584.0 177.0 L 585.0 176.0 L 586.0 175.0 L 587.0 174.0 L 587.0 172.0 L 587.0 170.0 L 587.0 168.0 L 586.0 167.0 L 585.0 166.0 L 584.0 165.0 L 583.0 164.0 L 582.0 163.0 L 580.0 163.0 L 578.0 163.0 L 577.0 162.0 L 576.0 161.0 L 574.0 161.0 L 572.0 161.0 L 570.0 161.0 L 569.0 160.0 L 568.0 159.0 L 566.0 159.0 L 564.0 159.0 L 562.0 159.0 L 560.0 159.0 L 559.0 158.0 L 558.0 157.0 L 556.0 157.0 L 554.0 157.0 L 552.0 157.0 L 551.0 156.0 L 550.0 155.0 L 548.0 155.0 L 546.0 155.0 L 545.0 154.0 L 544.0 153.0 L 542.0 153.0 L 540.0 153.0 L 539.0 152.0 L 538.0 151.0 L 536.0 151.0 L 535.0 150.0 L 534.0 149.0 L 533.0 148.0 L 532.0 147.0 L 530.0 147.0 L 529.0 146.0 L 528.0 145.0 L 527.0 144.0 L 526.0 143.0 L 525.0 142.0 L 525.0 140.0 L 524.0 139.0 L 523.0 138.0 L 522.0 137.0 L 521.0 136.0 L 521.0 134.0 L 521.0 132.0 L 521.0 130.0 L 521.0 128.0 L 520.0 127.0 L 519.0 126.0 L 519.0 124.0 L 519.0 122.0 L 519.0 120.0 L 519.0 118.0 L 520.0 117.0 L 521.0 116.0 L 521.0 114.0 L 521.0 112.0 L 521.0 110.0 L 521.0 108.0 L 522.0 107.0 L 523.0 106.0 L 523.0 104.0 L 523.0 102.0 L 524.0 101.0 L 525.0 100.0 L 526.0 99.0 L 527.0 98.0 L 528.0 97.0 L 529.0 96.0 L 529.0 94.0 L 530.0 93.0 L 531.0 92.0 L 532.0 91.0 L 533.0 90.0 L 534.0 89.0 L 536.0 89.0 L 537.0 88.0 L 538.0 87.0 L 539.0 86.0 L 540.0 85.0 L 542.0 85.0 L 543.0 84.0 L 544.0 83.0 L 546.0 83.0 L 547.0 82.0 L 548.0 81.0 L 550.0 81.0 L 551.0 80.0 L 552.0 79.0 L 554.0 79.0 L 556.0 79.0 L 558.0 79.0 L 559.0 78.0 L 560.0 77.0 L 562.0 77.0 L 564.0 77.0 L 566.0 77.0 L 568.0 77.0 L 570.0 77.0 L 571.0 76.0 L 572.0 75.0 L 574.0 75.0 L 576.0 75.0 L 578.0 75.0 L 580.0 75.0 L 582.0 75.0 L 584.0 75.0 L 586.0 75.0 L 588.0 75.0 L 590.0 75.0 L 592.0 75.0 L 594.0 75.0 L 596.0 75.0 L 598.0 75.0 L 599.0 76.0 L 600.0 77.0 L 602.0 77.0 L 604.0 77.0 L 606.0 77.0 L 608.0 77.0 L 610.0 77.0 L 612.0 77.0 L 613.0 78.0 L 614.0 79.0 L 616.0 79.0 L 618.0 79.0 L 619.0 80.0 L 620.0 81.0 L 622.0 81.0 L 624.0 81.0 L 625.0 82.0 L 626.0 83.0 L 628.0 83.0 L 629.0 84.0 L 630.0 85.0 L 632.0 85.0 L 633.0 86.0 L 633.0 88.0 L 632.0 89.0 L 631.0 90.0 L 631.0 92.0 L 630.0 93.0 L 629.0 94.0 L 629.0 96.0 L 628.0 97.0 L 627.0 98.0 L 627.0 100.0 L 626.0 101.0 L 625.0 102.0 L 625.0 104.0 L 624.0 105.0 L 623.0 106.0 L 623.0 108.0 L 622.0 109.0 L 621.0 110.0 L 621.0 112.0 L 620.0 113.0 L 619.0 114.0 L 618.0 115.0 L 617.0 114.0 L 616.0 113.0 L 614.0 113.0 L 613.0 112.0 L 612.0 111.0 L 610.0 111.0 L 609.0 110.0 L 608.0 109.0 L 606.0 109.0 L 604.0 109.0 L 603.0 108.0 L 602.0 107.0 L 600.0 107.0 L 598.0 107.0 L 596.0 107.0 L 595.0 106.0 L 594.0 105.0 L 592.0 105.0 L 590.0 105.0 L 588.0 105.0 L 586.0 105.0 L 584.0 105.0 L 582.0 105.0 L 580.0 105.0 L 578.0 105.0 L 576.0 105.0 L 574.0 105.0 L 572.0 105.0 L 571.0 106.0 L 570.0 107.0 L 568.0 107.0 L 566.0 107.0 L 564.0 107.0 L 563.0 108.0 L 562.0 109.0 L 561.0 110.0 L 560.0 111.0 L 559.0 112.0 L 558.0 113.0 L 557.0 114.0 L 557.0 116.0 L 557.0 118.0 L 557.0 120.0 L 558.0 121.0 L 559.0 122.0 L 560.0 123.0 L 561.0 124.0 L 562.0 125.0 L 564.0 125.0 L 565.0 126.0 L 566.0 127.0 L 568.0 127.0 L 570.0 127.0 L 571.0 128.0 L 572.0 129.0 L 574.0 129.0 L 576.0 129.0 L 578.0 129.0 L 580.0 129.0 L 581.0 130.0 L 582.0 131.0 L 584.0 131.0 L 586.0 131.0 L 588.0 131.0 L 589.0 132.0 L 590.0 133.0 L 592.0 133.0 L 594.0 133.0 L 596.0 133.0 L 597.0 134.0 L 598.0 135.0 L 600.0 135.0 L 602.0 135.0 L 603.0 136.0 L 604.0 137.0 L 606.0 137.0 L 607.0 138.0 L 608.0 139.0 L 610.0 139.0 L 611.0 140.0 L 612.0 141.0 L 613.0 142.0 L 614.0 143.0 L 615.0 144.0 L 616.0 145.0 L 617.0 146.0 L 618.0 147.0 L 619.0 148.0 L 620.0 149.0 L 621.0 150.0 L 621.0 152.0 L 622.0 153.0 L 623.0 154.0 L 623.0 156.0 L 624.0 157.0 L 625.0 158.0 L 625.0 160.0 L 625.0 162.0 L 625.0 164.0 L 625.0 166.0 L 625.0 168.0 L 625.0 170.0 L 625.0 172.0 L 625.0 174.0 L 624.0 175.0 L 623.0 176.0 L 623.0 178.0 L 623.0 180.0 L 623.0 182.0 L 622.0 183.0 L 621.0 184.0 L 621.0 186.0 L 620.0 187.0 L 619.0 188.0 L 618.0 189.0 L 617.0 190.0 L 616.0 191.0 L 615.0 192.0 L 614.0 193.0 L 613.0 194.0 L 612.0 195.0 L 611.0 196.0 L 610.0 197.0 L 609.0 198.0 L 608.0 199.0 L 607.0 200.0 L 606.0 201.0 L 605.0 202.0 L 604.0 203.0 L 602.0 203.0 L 601.0 204.0 L 600.0 205.0 L 598.0 205.0 L 597.0 206.0 L 596.0 207.0 L 594.0 207.0 L 592.0 207.0 L 591.0 208.0 L 590.0 209.0 L 588.0 209.0 L 586.0 209.0 L 585.0 210.0 L 584.0 211.0 L 582.0 211.0 L 580.0 211.0 L 578.0 211.0 L 576.0 211.0 L 575.0 212.0 L 574.0 213.0 Z"/>
    <path d="M 712.0 213.0 L 710.0 213.0 L 708.0 213.0 L 706.0 213.0 L 704.0 213.0 L 702.0 213.0 L 700.0 213.0 L 698.0 213.0 L 696.0 213.0 L 694.0 213.0 L 692.0 213.0 L 690.0 213.0 L 688.0 213.0 L 686.0 213.0 L 685.0 212.0 L 684.0 211.0 L 682.0 211.0 L 680.0 211.0 L 678.0 211.0 L 676.0 211.0 L 675.0 210.0 L 674.0 209.0 L 672.0 209.0 L 670.0 209.0 L 669.0 208.0 L 668.0 207.0 L 666.0 207.0 L 665.0 206.0 L 664.0 205.0 L 662.0 205.0 L 661.0 204.0 L 660.0 203.0 L 658.0 203.0 L 657.0 202.0 L 656.0 201.0 L 655.0 200.0 L 654.0 199.0 L 653.0 198.0 L 652.0 197.0 L 650.0 197.0 L 649.0 196.0 L 648.0 195.0 L 647.0 194.0 L 647.0 192.0 L 646.0 191.0 L 645.0 190.0 L 644.0 189.0 L 643.0 188.0 L 642.0 187.0 L 641.0 186.0 L 641.0 184.0 L 640.0 183.0 L 639.0 182.0 L 639.0 180.0 L 638.0 179.0 L 637.0 178.0 L 637.0 176.0 L 636.0 175.0 L 635.0 174.0 L 635.0 172.0 L 635.0 170.0 L 635.0 168.0 L 634.0 167.0 L 633.0 166.0 L 633.0 164.0 L 633.0 162.0 L 633.0 160.0 L 633.0 158.0 L 633.0 156.0 L 633.0 154.0 L 633.0 152.0 L 633.0 150.0 L 632.0 149.0 L 631.0 148.0 L 632.0 147.0 L 633.0 146.0 L 633.0 144.0 L 633.0 142.0 L 633.0 140.0 L 633.0 138.0 L 633.0 136.0 L 634.0 135.0 L 635.0 134.0 L 635.0 132.0 L 635.0 130.0 L 635.0 128.0 L 636.0 127.0 L 637.0 126.0 L 637.0 124.0 L 637.0 122.0 L 638.0 121.0 L 639.0 120.0 L 639.0 118.0 L 640.0 117.0 L 641.0 116.0 L 641.0 114.0 L 642.0 113.0 L 643.0 112.0 L 643.0 110.0 L 644.0 109.0 L 645.0 108.0 L 646.0 107.0 L 647.0 106.0 L 647.0 104.0 L 648.0 103.0 L 649.0 102.0 L 650.0 101.0 L 651.0 100.0 L 652.0 99.0 L 653.0 98.0 L 654.0 97.0 L 655.0 96.0 L 656.0 95.0 L 657.0 94.0 L 658.0 93.0 L 660.0 93.0 L 661.0 92.0 L 662.0 91.0 L 663.0 90.0 L 664.0 89.0 L 665.0 88.0 L 666.0 87.0 L 668.0 87.0 L 669.0 86.0 L 670.0 85.0 L 672.0 85.0 L 673.0 84.0 L 674.0 83.0 L 676.0 83.0 L 677.0 82.0 L 678.0 81.0 L 680.0 81.0 L 681.0 80.0 L 682.0 79.0 L 684.0 79.0 L 686.0 79.0 L 687.0 78.0 L 688.0 77.0 L 690.0 77.0 L 692.0 77.0 L 694.0 77.0 L 696.0 77.0 L 697.0 76.0 L 698.0 75.0 L 700.0 75.0 L 702.0 75.0 L 704.0 75.0 L 706.0 75.0 L 708.0 75.0 L 710.0 75.0 L 712.0 75.0 L 714.0 75.0 L 716.0 75.0 L 718.0 75.0 L 720.0 75.0 L 721.0 76.0 L 722.0 77.0 L 724.0 77.0 L 726.0 77.0 L 728.0 77.0 L 730.0 77.0 L 731.0 78.0 L 732.0 79.0 L 734.0 79.0 L 736.0 79.0 L 737.0 80.0 L 738.0 81.0 L 740.0 81.0 L 741.0 82.0 L 742.0 83.0 L 744.0 83.0 L 745.0 84.0 L 746.0 85.0 L 748.0 85.0 L 749.0 86.0 L 750.0 87.0 L 751.0 88.0 L 752.0 89.0 L 754.0 89.0 L 755.0 90.0 L 756.0 91.0 L 757.0 92.0 L 758.0 93.0 L 759.0 94.0 L 759.0 96.0 L 760.0 97.0 L 761.0 98.0 L 762.0 99.0 L 763.0 100.0 L 764.0 101.0 L 765.0 102.0 L 765.0 104.0 L 766.0 105.0 L 767.0 106.0 L 767.0 108.0 L 767.0 110.0 L 768.0 111.0 L 769.0 112.0 L 769.0 114.0 L 770.0 115.0 L 771.0 116.0 L 771.0 118.0 L 771.0 120.0 L 771.0 122.0 L 771.0 124.0 L 771.0 126.0 L 771.0 128.0 L 771.0 130.0 L 771.0 132.0 L 771.0 134.0 L 771.0 136.0 L 771.0 138.0 L 771.0 140.0 L 771.0 142.0 L 771.0 144.0 L 771.0 146.0 L 771.0 148.0 L 771.0 150.0 L 771.0 152.0 L 770.0 153.0 L 769.0 154.0 L 768.0 155.0 L 766.0 155.0 L 764.0 155.0 L 762.0 155.0 L 760.0 155.0 L 758.0 155.0 L 756.0 155.0 L 754.0 155.0 L 752.0 155.0 L 750.0 155.0 L 748.0 155.0 L 746.0 155.0 L 744.0 155.0 L 742.0 155.0 L 740.0 155.0 L 738.0 155.0 L 736.0 155.0 L 734.0 155.0 L 732.0 155.0 L 730.0 155.0 L 728.0 155.0 L 726.0 155.0 L 724.0 155.0 L 722.0 155.0 L 720.0 155.0 L 718.0 155.0 L 716.0 155.0 L 714.0 155.0 L 712.0 155.0 L 710.0 155.0 L 708.0 155.0 L 706.0 155.0 L 704.0 155.0 L 702.0 155.0 L 700.0 155.0 L 698.0 155.0 L 696.0 155.0 L 694.0 155.0 L 692.0 155.0 L 690.0 155.0 L 688.0 155.0 L 686.0 155.0 L 684.0 155.0 L 682.0 155.0 L 680.0 155.0 L 678.0 155.0 L 676.0 155.0 L 674.0 155.0 L 673.0 156.0 L 672.0 157.0 L 671.0 158.0 L 671.0 160.0 L 671.0 162.0 L 672.0 163.0 L 673.0 164.0 L 673.0 166.0 L 674.0 167.0 L 675.0 168.0 L 675.0 170.0 L 676.0 171.0 L 677.0 172.0 L 678.0 173.0 L 679.0 174.0 L 680.0 175.0 L 682.0 175.0 L 683.0 176.0 L 684.0 177.0 L 685.0 178.0 L 686.0 179.0 L 688.0 179.0 L 690.0 179.0 L 692.0 179.0 L 693.0 180.0 L 694.0 181.0 L 696.0 181.0 L 698.0 181.0 L 700.0 181.0 L 702.0 181.0 L 704.0 181.0 L 706.0 181.0 L 708.0 181.0 L 710.0 181.0 L 712.0 181.0 L 714.0 181.0 L 715.0 180.0 L 716.0 179.0 L 718.0 179.0 L 720.0 179.0 L 721.0 178.0 L 722.0 177.0 L 724.0 177.0 L 726.0 177.0 L 727.0 176.0 L 728.0 175.0 L 730.0 175.0 L 731.0 174.0 L 732.0 173.0 L 733.0 172.0 L 734.0 171.0 L 736.0 171.0 L 737.0 170.0 L 738.0 169.0 L 739.0 170.0 L 739.0 172.0 L 740.0 173.0 L 741.0 174.0 L 741.0 176.0 L 742.0 177.0 L 743.0 178.0 L 744.0 179.0 L 745.0 180.0 L 745.0 182.0 L 746.0 183.0 L 747.0 184.0 L 747.0 186.0 L 748.0 187.0 L 749.0 188.0 L 750.0 189.0 L 751.0 190.0 L 751.0 192.0 L 752.0 193.0 L 753.0 194.0 L 753.0 196.0 L 752.0 197.0 L 750.0 197.0 L 749.0 198.0 L 748.0 199.0 L 747.0 200.0 L 746.0 201.0 L 744.0 201.0 L 743.0 202.0 L 742.0 203.0 L 740.0 203.0 L 739.0 204.0 L 738.0 205.0 L 736.0 205.0 L 735.0 206.0 L 734.0 207.0 L 732.0 207.0 L 731.0 208.0 L 730.0 209.0 L 728.0 209.0 L 726.0 209.0 L 724.0 209.0 L 723.0 210.0 L 722.0 211.0 L 720.0 211.0 L 718.0 211.0 L 716.0 211.0 L 714.0 211.0 L 713.0 212.0 L 712.0 213.0 Z"/>
    <path d="M 358.0 213.0 L 356.0 213.0 L 354.0 213.0 L 352.0 213.0 L 350.0 213.0 L 348.0 213.0 L 346.0 213.0 L 344.0 213.0 L 342.0 213.0 L 340.0 213.0 L 338.0 213.0 L 336.0 213.0 L 335.0 212.0 L 334.0 211.0 L 332.0 211.0 L 330.0 211.0 L 328.0 211.0 L 327.0 210.0 L 326.0 209.0 L 324.0 209.0 L 323.0 208.0 L 322.0 207.0 L 320.0 207.0 L 319.0 206.0 L 318.0 205.0 L 317.0 204.0 L 316.0 203.0 L 314.0 203.0 L 313.0 202.0 L 312.0 201.0 L 311.0 200.0 L 310.0 199.0 L 309.0 198.0 L 308.0 197.0 L 307.0 196.0 L 307.0 194.0 L 306.0 193.0 L 305.0 192.0 L 305.0 190.0 L 304.0 189.0 L 303.0 188.0 L 303.0 186.0 L 302.0 185.0 L 301.0 184.0 L 301.0 182.0 L 301.0 180.0 L 301.0 178.0 L 301.0 176.0 L 300.0 175.0 L 299.0 174.0 L 299.0 172.0 L 299.0 170.0 L 299.0 168.0 L 299.0 166.0 L 299.0 164.0 L 299.0 162.0 L 300.0 161.0 L 301.0 160.0 L 301.0 158.0 L 301.0 156.0 L 301.0 154.0 L 301.0 152.0 L 301.0 150.0 L 301.0 148.0 L 302.0 147.0 L 303.0 146.0 L 303.0 144.0 L 303.0 142.0 L 303.0 140.0 L 303.0 138.0 L 304.0 137.0 L 305.0 136.0 L 305.0 134.0 L 305.0 132.0 L 305.0 130.0 L 305.0 128.0 L 306.0 127.0 L 307.0 126.0 L 307.0 124.0 L 307.0 122.0 L 307.0 120.0 L 308.0 119.0 L 309.0 118.0 L 309.0 116.0 L 309.0 114.0 L 309.0 112.0 L 309.0 110.0 L 309.0 108.0 L 310.0 107.0 L 311.0 106.0 L 311.0 104.0 L 311.0 102.0 L 311.0 100.0 L 312.0 99.0 L 313.0 98.0 L 313.0 96.0 L 313.0 94.0 L 313.0 92.0 L 313.0 90.0 L 314.0 89.0 L 315.0 88.0 L 315.0 86.0 L 315.0 84.0 L 315.0 82.0 L 315.0 80.0 L 316.0 79.0 L 317.0 78.0 L 318.0 77.0 L 320.0 77.0 L 322.0 77.0 L 324.0 77.0 L 326.0 77.0 L 328.0 77.0 L 330.0 77.0 L 332.0 77.0 L 334.0 77.0 L 336.0 77.0 L 338.0 77.0 L 340.0 77.0 L 342.0 77.0 L 344.0 77.0 L 346.0 77.0 L 348.0 77.0 L 350.0 77.0 L 352.0 77.0 L 354.0 77.0 L 355.0 78.0 L 355.0 80.0 L 355.0 82.0 L 354.0 83.0 L 353.0 84.0 L 353.0 86.0 L 353.0 88.0 L 353.0 90.0 L 353.0 92.0 L 353.0 94.0 L 352.0 95.0 L 351.0 96.0 L 351.0 98.0 L 351.0 100.0 L 351.0 102.0 L 351.0 104.0 L 350.0 105.0 L 349.0 106.0 L 349.0 108.0 L 349.0 110.0 L 349.0 112.0 L 349.0 114.0 L 348.0 115.0 L 347.0 116.0 L 347.0 118.0 L 347.0 120.0 L 347.0 122.0 L 347.0 124.0 L 346.0 125.0 L 345.0 126.0 L 345.0 128.0 L 345.0 130.0 L 345.0 132.0 L 345.0 134.0 L 344.0 135.0 L 343.0 136.0 L 343.0 138.0 L 343.0 140.0 L 343.0 142.0 L 343.0 144.0 L 342.0 145.0 L 341.0 146.0 L 341.0 148.0 L 341.0 150.0 L 341.0 152.0 L 341.0 154.0 L 340.0 155.0 L 339.0 156.0 L 339.0 158.0 L 339.0 160.0 L 339.0 162.0 L 340.0 163.0 L 341.0 164.0 L 341.0 166.0 L 341.0 168.0 L 342.0 169.0 L 343.0 170.0 L 343.0 172.0 L 344.0 173.0 L 345.0 174.0 L 346.0 175.0 L 347.0 176.0 L 348.0 177.0 L 350.0 177.0 L 351.0 178.0 L 352.0 179.0 L 354.0 179.0 L 356.0 179.0 L 358.0 179.0 L 360.0 179.0 L 362.0 179.0 L 364.0 179.0 L 366.0 179.0 L 368.0 179.0 L 369.0 178.0 L 370.0 177.0 L 372.0 177.0 L 374.0 177.0 L 375.0 176.0 L 376.0 175.0 L 378.0 175.0 L 379.0 174.0 L 380.0 173.0 L 381.0 172.0 L 382.0 171.0 L 383.0 170.0 L 384.0 169.0 L 385.0 168.0 L 386.0 167.0 L 387.0 166.0 L 388.0 165.0 L 389.0 164.0 L 390.0 163.0 L 391.0 162.0 L 391.0 160.0 L 392.0 159.0 L 393.0 158.0 L 393.0 156.0 L 394.0 155.0 L 395.0 154.0 L 395.0 152.0 L 395.0 150.0 L 395.0 148.0 L 396.0 147.0 L 397.0 146.0 L 397.0 144.0 L 397.0 142.0 L 397.0 140.0 L 398.0 139.0 L 399.0 138.0 L 399.0 136.0 L 399.0 134.0 L 399.0 132.0 L 399.0 130.0 L 400.0 129.0 L 401.0 128.0 L 401.0 126.0 L 401.0 124.0 L 401.0 122.0 L 401.0 120.0 L 402.0 119.0 L 403.0 118.0 L 403.0 116.0 L 403.0 114.0 L 403.0 112.0 L 403.0 110.0 L 404.0 109.0 L 405.0 108.0 L 405.0 106.0 L 405.0 104.0 L 405.0 102.0 L 405.0 100.0 L 406.0 99.0 L 407.0 98.0 L 407.0 96.0 L 407.0 94.0 L 407.0 92.0 L 407.0 90.0 L 408.0 89.0 L 409.0 88.0 L 409.0 86.0 L 409.0 84.0 L 409.0 82.0 L 409.0 80.0 L 410.0 79.0 L 411.0 78.0 L 412.0 77.0 L 414.0 77.0 L 416.0 77.0 L 418.0 77.0 L 420.0 77.0 L 422.0 77.0 L 424.0 77.0 L 426.0 77.0 L 428.0 77.0 L 430.0 77.0 L 432.0 77.0 L 434.0 77.0 L 436.0 77.0 L 438.0 77.0 L 440.0 77.0 L 442.0 77.0 L 444.0 77.0 L 446.0 77.0 L 448.0 77.0 L 449.0 78.0 L 449.0 80.0 L 449.0 82.0 L 448.0 83.0 L 447.0 84.0 L 447.0 86.0 L 447.0 88.0 L 447.0 90.0 L 447.0 92.0 L 447.0 94.0 L 446.0 95.0 L 445.0 96.0 L 445.0 98.0 L 445.0 100.0 L 445.0 102.0 L 445.0 104.0 L 444.0 105.0 L 443.0 106.0 L 443.0 108.0 L 443.0 110.0 L 443.0 112.0 L 443.0 114.0 L 442.0 115.0 L 441.0 116.0 L 441.0 118.0 L 441.0 120.0 L 441.0 122.0 L 441.0 124.0 L 440.0 125.0 L 439.0 126.0 L 439.0 128.0 L 439.0 130.0 L 439.0 132.0 L 438.0 133.0 L 437.0 134.0 L 437.0 136.0 L 437.0 138.0 L 437.0 140.0 L 437.0 142.0 L 436.0 143.0 L 435.0 144.0 L 435.0 146.0 L 435.0 148.0 L 435.0 150.0 L 435.0 152.0 L 434.0 153.0 L 433.0 154.0 L 433.0 156.0 L 433.0 158.0 L 433.0 160.0 L 433.0 162.0 L 433.0 164.0 L 432.0 165.0 L 431.0 166.0 L 431.0 168.0 L 431.0 170.0 L 431.0 172.0 L 430.0 173.0 L 429.0 174.0 L 429.0 176.0 L 429.0 178.0 L 429.0 180.0 L 429.0 182.0 L 429.0 184.0 L 428.0 185.0 L 427.0 186.0 L 427.0 188.0 L 427.0 190.0 L 427.0 192.0 L 426.0 193.0 L 425.0 194.0 L 425.0 196.0 L 425.0 198.0 L 425.0 200.0 L 425.0 202.0 L 425.0 204.0 L 424.0 205.0 L 423.0 206.0 L 423.0 208.0 L 423.0 210.0 L 422.0 211.0 L 420.0 211.0 L 418.0 211.0 L 416.0 211.0 L 414.0 211.0 L 412.0 211.0 L 410.0 211.0 L 408.0 211.0 L 406.0 211.0 L 404.0 211.0 L 402.0 211.0 L 400.0 211.0 L 398.0 211.0 L 396.0 211.0 L 394.0 211.0 L 392.0 211.0 L 390.0 211.0 L 388.0 211.0 L 386.0 211.0 L 385.0 210.0 L 386.0 209.0 L 387.0 208.0 L 387.0 206.0 L 387.0 204.0 L 386.0 203.0 L 385.0 202.0 L 384.0 201.0 L 382.0 201.0 L 381.0 202.0 L 380.0 203.0 L 379.0 204.0 L 378.0 205.0 L 376.0 205.0 L 375.0 206.0 L 374.0 207.0 L 372.0 207.0 L 371.0 208.0 L 370.0 209.0 L 368.0 209.0 L 367.0 210.0 L 366.0 211.0 L 364.0 211.0 L 362.0 211.0 L 360.0 211.0 L 359.0 212.0 L 358.0 213.0 Z"/>
    <path d="M 735.0 130.0 L 736.0 129.0 L 737.0 128.0 L 736.0 127.0 L 735.0 126.0 L 735.0 124.0 L 735.0 122.0 L 735.0 120.0 L 734.0 119.0 L 733.0 118.0 L 733.0 116.0 L 732.0 115.0 L 731.0 114.0 L 730.0 113.0 L 729.0 112.0 L 728.0 111.0 L 727.0 110.0 L 726.0 109.0 L 724.0 109.0 L 723.0 108.0 L 722.0 107.0 L 720.0 107.0 L 718.0 107.0 L 717.0 106.0 L 716.0 105.0 L 714.0 105.0 L 712.0 105.0 L 710.0 105.0 L 708.0 105.0 L 706.0 105.0 L 704.0 105.0 L 702.0 105.0 L 700.0 105.0 L 699.0 106.0 L 698.0 107.0 L 696.0 107.0 L 694.0 107.0 L 693.0 108.0 L 692.0 109.0 L 690.0 109.0 L 689.0 110.0 L 688.0 111.0 L 686.0 111.0 L 685.0 112.0 L 684.0 113.0 L 683.0 114.0 L 682.0 115.0 L 681.0 116.0 L 680.0 117.0 L 679.0 118.0 L 679.0 120.0 L 678.0 121.0 L 677.0 122.0 L 676.0 123.0 L 675.0 124.0 L 675.0 126.0 L 675.0 128.0 L 676.0 129.0 L 677.0 130.0 L 678.0 131.0 L 680.0 131.0 L 682.0 131.0 L 684.0 131.0 L 686.0 131.0 L 688.0 131.0 L 690.0 131.0 L 692.0 131.0 L 694.0 131.0 L 696.0 131.0 L 698.0 131.0 L 700.0 131.0 L 702.0 131.0 L 704.0 131.0 L 706.0 131.0 L 708.0 131.0 L 710.0 131.0 L 712.0 131.0 L 714.0 131.0 L 716.0 131.0 L 718.0 131.0 L 720.0 131.0 L 722.0 131.0 L 724.0 131.0 L 726.0 131.0 L 728.0 131.0 L 730.0 131.0 L 732.0 131.0 L 734.0 131.0 L 735.0 130.0 Z"/>
    <path d="M 86.0 255.0 L 85.0 254.0 L 85.0 252.0 L 85.0 250.0 L 85.0 248.0 L 85.0 246.0 L 86.0 245.0 L 87.0 244.0 L 87.0 242.0 L 87.0 240.0 L 87.0 238.0 L 88.0 237.0 L 89.0 236.0 L 89.0 234.0 L 89.0 232.0 L 89.0 230.0 L 89.0 228.0 L 90.0 227.0 L 91.0 226.0 L 91.0 224.0 L 91.0 222.0 L 91.0 220.0 L 92.0 219.0 L 93.0 218.0 L 93.0 216.0 L 93.0 214.0 L 93.0 212.0 L 93.0 210.0 L 94.0 209.0 L 95.0 208.0 L 95.0 206.0 L 95.0 204.0 L 95.0 202.0 L 95.0 200.0 L 96.0 199.0 L 97.0 198.0 L 97.0 196.0 L 97.0 194.0 L 97.0 192.0 L 97.0 190.0 L 98.0 189.0 L 99.0 188.0 L 99.0 186.0 L 99.0 184.0 L 99.0 182.0 L 100.0 181.0 L 101.0 180.0 L 101.0 178.0 L 101.0 176.0 L 101.0 174.0 L 102.0 173.0 L 104.0 173.0 L 106.0 173.0 L 108.0 173.0 L 110.0 173.0 L 112.0 173.0 L 114.0 173.0 L 116.0 173.0 L 118.0 173.0 L 120.0 173.0 L 122.0 173.0 L 124.0 173.0 L 126.0 173.0 L 128.0 173.0 L 130.0 173.0 L 132.0 173.0 L 134.0 173.0 L 136.0 173.0 L 137.0 174.0 L 137.0 176.0 L 137.0 178.0 L 137.0 180.0 L 136.0 181.0 L 135.0 182.0 L 135.0 184.0 L 135.0 186.0 L 135.0 188.0 L 135.0 190.0 L 134.0 191.0 L 133.0 192.0 L 133.0 194.0 L 133.0 196.0 L 133.0 198.0 L 132.0 199.0 L 131.0 200.0 L 131.0 202.0 L 131.0 204.0 L 131.0 206.0 L 131.0 208.0 L 130.0 209.0 L 129.0 210.0 L 129.0 212.0 L 129.0 214.0 L 129.0 216.0 L 129.0 218.0 L 128.0 219.0 L 127.0 220.0 L 127.0 222.0 L 127.0 224.0 L 127.0 226.0 L 127.0 228.0 L 126.0 229.0 L 125.0 230.0 L 125.0 232.0 L 125.0 234.0 L 124.0 235.0 L 123.0 236.0 L 122.0 237.0 L 121.0 238.0 L 120.0 239.0 L 119.0 240.0 L 118.0 241.0 L 117.0 242.0 L 116.0 243.0 L 115.0 244.0 L 114.0 245.0 L 112.0 245.0 L 111.0 246.0 L 110.0 247.0 L 108.0 247.0 L 106.0 247.0 L 105.0 248.0 L 104.0 249.0 L 102.0 249.0 L 100.0 249.0 L 99.0 250.0 L 98.0 251.0 L 96.0 251.0 L 94.0 251.0 L 93.0 252.0 L 92.0 253.0 L 90.0 253.0 L 88.0 253.0 L 87.0 254.0 L 86.0 255.0 Z"/>
    <path d="M 554.0 275.0 L 552.0 275.0 L 550.0 275.0 L 548.0 275.0 L 546.0 275.0 L 544.0 275.0 L 543.0 274.0 L 542.0 273.0 L 540.0 273.0 L 539.0 272.0 L 538.0 271.0 L 537.0 270.0 L 537.0 268.0 L 537.0 266.0 L 536.0 265.0 L 535.0 264.0 L 534.0 263.0 L 533.0 264.0 L 532.0 265.0 L 531.0 266.0 L 531.0 268.0 L 530.0 269.0 L 529.0 270.0 L 528.0 271.0 L 527.0 272.0 L 527.0 274.0 L 526.0 275.0 L 524.0 275.0 L 522.0 275.0 L 520.0 275.0 L 519.0 274.0 L 519.0 272.0 L 518.0 271.0 L 517.0 270.0 L 517.0 268.0 L 517.0 266.0 L 517.0 264.0 L 516.0 263.0 L 515.0 262.0 L 514.0 261.0 L 513.0 262.0 L 512.0 263.0 L 511.0 264.0 L 511.0 266.0 L 510.0 267.0 L 509.0 268.0 L 509.0 270.0 L 509.0 272.0 L 509.0 274.0 L 508.0 275.0 L 506.0 275.0 L 504.0 275.0 L 502.0 275.0 L 501.0 274.0 L 500.0 273.0 L 499.0 274.0 L 498.0 275.0 L 496.0 275.0 L 494.0 275.0 L 492.0 275.0 L 490.0 275.0 L 489.0 274.0 L 488.0 273.0 L 487.0 272.0 L 486.0 271.0 L 485.0 270.0 L 484.0 269.0 L 483.0 270.0 L 482.0 271.0 L 481.0 272.0 L 480.0 273.0 L 478.0 273.0 L 477.0 274.0 L 476.0 275.0 L 474.0 275.0 L 472.0 275.0 L 470.0 275.0 L 468.0 275.0 L 466.0 275.0 L 465.0 274.0 L 464.0 273.0 L 462.0 273.0 L 461.0 272.0 L 460.0 271.0 L 459.0 270.0 L 458.0 269.0 L 457.0 270.0 L 456.0 271.0 L 455.0 272.0 L 455.0 274.0 L 454.0 275.0 L 452.0 275.0 L 450.0 275.0 L 449.0 274.0 L 449.0 272.0 L 449.0 270.0 L 449.0 268.0 L 449.0 266.0 L 449.0 264.0 L 449.0 262.0 L 449.0 260.0 L 448.0 259.0 L 447.0 258.0 L 446.0 257.0 L 445.0 258.0 L 444.0 259.0 L 443.0 260.0 L 442.0 261.0 L 441.0 262.0 L 441.0 264.0 L 441.0 266.0 L 440.0 267.0 L 439.0 268.0 L 439.0 270.0 L 439.0 272.0 L 439.0 274.0 L 438.0 275.0 L 436.0 275.0 L 434.0 275.0 L 433.0 274.0 L 432.0 273.0 L 431.0 272.0 L 432.0 271.0 L 433.0 270.0 L 433.0 268.0 L 433.0 266.0 L 433.0 264.0 L 433.0 262.0 L 433.0 260.0 L 432.0 259.0 L 431.0 258.0 L 430.0 257.0 L 429.0 258.0 L 428.0 259.0 L 427.0 260.0 L 426.0 261.0 L 425.0 262.0 L 425.0 264.0 L 425.0 266.0 L 425.0 268.0 L 424.0 269.0 L 423.0 270.0 L 423.0 272.0 L 423.0 274.0 L 422.0 275.0 L 420.0 275.0 L 418.0 275.0 L 417.0 274.0 L 416.0 273.0 L 415.0 272.0 L 414.0 271.0 L 412.0 271.0 L 411.0 272.0 L 410.0 273.0 L 408.0 273.0 L 407.0 274.0 L 406.0 275.0 L 404.0 275.0 L 402.0 275.0 L 400.0 275.0 L 398.0 275.0 L 396.0 275.0 L 395.0 274.0 L 394.0 273.0 L 392.0 273.0 L 391.0 272.0 L 390.0 271.0 L 389.0 272.0 L 388.0 273.0 L 387.0 274.0 L 386.0 275.0 L 384.0 275.0 L 382.0 275.0 L 380.0 275.0 L 378.0 275.0 L 377.0 274.0 L 376.0 273.0 L 375.0 272.0 L 375.0 270.0 L 374.0 269.0 L 373.0 268.0 L 372.0 267.0 L 371.0 268.0 L 370.0 269.0 L 369.0 270.0 L 369.0 272.0 L 369.0 274.0 L 368.0 275.0 L 366.0 275.0 L 364.0 275.0 L 362.0 275.0 L 360.0 275.0 L 358.0 275.0 L 356.0 275.0 L 354.0 275.0 L 352.0 275.0 L 350.0 275.0 L 349.0 274.0 L 348.0 273.0 L 346.0 273.0 L 345.0 274.0 L 344.0 275.0 L 342.0 275.0 L 340.0 275.0 L 339.0 274.0 L 338.0 273.0 L 337.0 272.0 L 336.0 271.0 L 335.0 270.0 L 334.0 269.0 L 332.0 269.0 L 330.0 269.0 L 328.0 269.0 L 326.0 269.0 L 324.0 269.0 L 323.0 270.0 L 322.0 271.0 L 321.0 272.0 L 320.0 273.0 L 319.0 274.0 L 318.0 275.0 L 316.0 275.0 L 314.0 275.0 L 312.0 275.0 L 311.0 274.0 L 312.0 273.0 L 313.0 272.0 L 313.0 270.0 L 314.0 269.0 L 315.0 268.0 L 316.0 267.0 L 317.0 266.0 L 317.0 264.0 L 318.0 263.0 L 319.0 262.0 L 320.0 261.0 L 321.0 260.0 L 321.0 258.0 L 322.0 257.0 L 323.0 256.0 L 323.0 254.0 L 324.0 253.0 L 325.0 252.0 L 326.0 251.0 L 327.0 250.0 L 327.0 248.0 L 328.0 247.0 L 329.0 246.0 L 330.0 245.0 L 332.0 245.0 L 334.0 245.0 L 336.0 245.0 L 337.0 246.0 L 338.0 247.0 L 339.0 248.0 L 339.0 250.0 L 339.0 252.0 L 340.0 253.0 L 341.0 254.0 L 341.0 256.0 L 341.0 258.0 L 341.0 260.0 L 342.0 261.0 L 343.0 262.0 L 344.0 263.0 L 345.0 262.0 L 346.0 261.0 L 347.0 260.0 L 348.0 259.0 L 349.0 258.0 L 349.0 256.0 L 349.0 254.0 L 349.0 252.0 L 350.0 251.0 L 352.0 251.0 L 354.0 251.0 L 356.0 251.0 L 357.0 252.0 L 357.0 254.0 L 356.0 255.0 L 355.0 256.0 L 355.0 258.0 L 355.0 260.0 L 355.0 262.0 L 355.0 264.0 L 355.0 266.0 L 356.0 267.0 L 357.0 268.0 L 358.0 269.0 L 360.0 269.0 L 361.0 268.0 L 362.0 267.0 L 363.0 266.0 L 363.0 264.0 L 364.0 263.0 L 365.0 262.0 L 365.0 260.0 L 365.0 258.0 L 365.0 256.0 L 365.0 254.0 L 366.0 253.0 L 367.0 252.0 L 368.0 251.0 L 370.0 251.0 L 372.0 251.0 L 374.0 251.0 L 376.0 251.0 L 377.0 250.0 L 378.0 249.0 L 379.0 248.0 L 379.0 246.0 L 380.0 245.0 L 382.0 245.0 L 384.0 245.0 L 385.0 246.0 L 385.0 248.0 L 386.0 249.0 L 387.0 250.0 L 388.0 251.0 L 390.0 251.0 L 391.0 252.0 L 392.0 253.0 L 394.0 253.0 L 396.0 253.0 L 397.0 252.0 L 398.0 251.0 L 400.0 251.0 L 402.0 251.0 L 404.0 251.0 L 406.0 251.0 L 408.0 251.0 L 409.0 252.0 L 410.0 253.0 L 412.0 253.0 L 413.0 254.0 L 414.0 255.0 L 415.0 256.0 L 416.0 257.0 L 417.0 256.0 L 418.0 255.0 L 419.0 254.0 L 419.0 252.0 L 420.0 251.0 L 422.0 251.0 L 424.0 251.0 L 426.0 251.0 L 428.0 251.0 L 430.0 251.0 L 432.0 251.0 L 434.0 251.0 L 436.0 251.0 L 438.0 251.0 L 439.0 252.0 L 440.0 253.0 L 442.0 253.0 L 443.0 252.0 L 444.0 251.0 L 446.0 251.0 L 448.0 251.0 L 450.0 251.0 L 452.0 251.0 L 454.0 251.0 L 455.0 252.0 L 456.0 253.0 L 457.0 254.0 L 458.0 255.0 L 459.0 256.0 L 460.0 257.0 L 461.0 256.0 L 462.0 255.0 L 463.0 254.0 L 464.0 253.0 L 466.0 253.0 L 467.0 252.0 L 468.0 251.0 L 470.0 251.0 L 472.0 251.0 L 474.0 251.0 L 476.0 251.0 L 478.0 251.0 L 479.0 252.0 L 480.0 253.0 L 482.0 253.0 L 483.0 254.0 L 484.0 255.0 L 485.0 254.0 L 486.0 253.0 L 487.0 252.0 L 488.0 251.0 L 489.0 250.0 L 490.0 249.0 L 491.0 248.0 L 491.0 246.0 L 492.0 245.0 L 494.0 245.0 L 496.0 245.0 L 497.0 246.0 L 497.0 248.0 L 498.0 249.0 L 499.0 250.0 L 500.0 251.0 L 502.0 251.0 L 504.0 251.0 L 506.0 251.0 L 507.0 250.0 L 508.0 249.0 L 509.0 248.0 L 508.0 247.0 L 507.0 246.0 L 507.0 244.0 L 507.0 242.0 L 508.0 241.0 L 509.0 240.0 L 510.0 239.0 L 512.0 239.0 L 513.0 240.0 L 514.0 241.0 L 515.0 242.0 L 515.0 244.0 L 515.0 246.0 L 514.0 247.0 L 513.0 248.0 L 514.0 249.0 L 515.0 250.0 L 516.0 251.0 L 518.0 251.0 L 520.0 251.0 L 521.0 252.0 L 521.0 254.0 L 521.0 256.0 L 522.0 257.0 L 523.0 258.0 L 524.0 259.0 L 525.0 260.0 L 526.0 261.0 L 527.0 260.0 L 528.0 259.0 L 529.0 258.0 L 530.0 257.0 L 531.0 256.0 L 531.0 254.0 L 532.0 253.0 L 533.0 252.0 L 534.0 251.0 L 536.0 251.0 L 538.0 251.0 L 540.0 251.0 L 541.0 252.0 L 542.0 253.0 L 543.0 252.0 L 544.0 251.0 L 546.0 251.0 L 548.0 251.0 L 550.0 251.0 L 552.0 251.0 L 554.0 251.0 L 556.0 251.0 L 557.0 252.0 L 558.0 253.0 L 559.0 254.0 L 560.0 255.0 L 561.0 256.0 L 561.0 258.0 L 561.0 260.0 L 561.0 262.0 L 561.0 264.0 L 560.0 265.0 L 558.0 265.0 L 557.0 266.0 L 556.0 267.0 L 555.0 268.0 L 556.0 269.0 L 557.0 270.0 L 558.0 271.0 L 559.0 272.0 L 558.0 273.0 L 556.0 273.0 L 555.0 274.0 L 554.0 275.0 Z"/>
    <path d="M 760.0 275.0 L 758.0 275.0 L 756.0 275.0 L 754.0 275.0 L 752.0 275.0 L 750.0 275.0 L 748.0 275.0 L 746.0 275.0 L 745.0 274.0 L 744.0 273.0 L 742.0 273.0 L 741.0 274.0 L 740.0 275.0 L 738.0 275.0 L 736.0 275.0 L 735.0 274.0 L 735.0 272.0 L 735.0 270.0 L 735.0 268.0 L 735.0 266.0 L 735.0 264.0 L 735.0 262.0 L 735.0 260.0 L 734.0 259.0 L 733.0 258.0 L 732.0 257.0 L 730.0 257.0 L 729.0 258.0 L 728.0 259.0 L 727.0 260.0 L 727.0 262.0 L 726.0 263.0 L 725.0 264.0 L 725.0 266.0 L 725.0 268.0 L 725.0 270.0 L 724.0 271.0 L 723.0 272.0 L 723.0 274.0 L 722.0 275.0 L 720.0 275.0 L 718.0 275.0 L 717.0 274.0 L 717.0 272.0 L 716.0 271.0 L 715.0 270.0 L 714.0 269.0 L 713.0 270.0 L 712.0 271.0 L 711.0 272.0 L 710.0 273.0 L 709.0 274.0 L 708.0 275.0 L 706.0 275.0 L 704.0 275.0 L 702.0 275.0 L 700.0 275.0 L 698.0 275.0 L 696.0 275.0 L 695.0 274.0 L 694.0 273.0 L 693.0 272.0 L 692.0 271.0 L 691.0 270.0 L 690.0 269.0 L 689.0 270.0 L 688.0 271.0 L 687.0 272.0 L 686.0 273.0 L 685.0 274.0 L 684.0 275.0 L 682.0 275.0 L 680.0 275.0 L 679.0 274.0 L 678.0 273.0 L 677.0 274.0 L 676.0 275.0 L 674.0 275.0 L 672.0 275.0 L 670.0 275.0 L 668.0 275.0 L 667.0 274.0 L 666.0 273.0 L 665.0 272.0 L 665.0 270.0 L 664.0 269.0 L 663.0 268.0 L 664.0 267.0 L 665.0 266.0 L 664.0 265.0 L 663.0 264.0 L 662.0 263.0 L 661.0 264.0 L 660.0 265.0 L 659.0 266.0 L 660.0 267.0 L 661.0 268.0 L 660.0 269.0 L 659.0 270.0 L 659.0 272.0 L 659.0 274.0 L 658.0 275.0 L 656.0 275.0 L 654.0 275.0 L 652.0 275.0 L 650.0 275.0 L 648.0 275.0 L 646.0 275.0 L 644.0 275.0 L 642.0 275.0 L 640.0 275.0 L 639.0 274.0 L 638.0 273.0 L 637.0 272.0 L 637.0 270.0 L 636.0 269.0 L 635.0 268.0 L 634.0 267.0 L 633.0 268.0 L 632.0 269.0 L 631.0 270.0 L 631.0 272.0 L 631.0 274.0 L 630.0 275.0 L 628.0 275.0 L 626.0 275.0 L 624.0 275.0 L 623.0 274.0 L 622.0 273.0 L 621.0 272.0 L 620.0 271.0 L 619.0 272.0 L 618.0 273.0 L 616.0 273.0 L 615.0 274.0 L 614.0 275.0 L 612.0 275.0 L 610.0 275.0 L 608.0 275.0 L 606.0 275.0 L 604.0 275.0 L 603.0 274.0 L 602.0 273.0 L 601.0 272.0 L 600.0 271.0 L 599.0 270.0 L 598.0 269.0 L 596.0 269.0 L 595.0 270.0 L 594.0 271.0 L 593.0 272.0 L 592.0 273.0 L 591.0 274.0 L 590.0 275.0 L 588.0 275.0 L 586.0 275.0 L 584.0 275.0 L 582.0 275.0 L 580.0 275.0 L 578.0 275.0 L 576.0 275.0 L 575.0 274.0 L 574.0 273.0 L 572.0 273.0 L 571.0 272.0 L 571.0 270.0 L 571.0 268.0 L 572.0 267.0 L 574.0 267.0 L 576.0 267.0 L 577.0 268.0 L 578.0 269.0 L 580.0 269.0 L 582.0 269.0 L 584.0 269.0 L 586.0 269.0 L 587.0 268.0 L 588.0 267.0 L 589.0 266.0 L 588.0 265.0 L 587.0 264.0 L 586.0 263.0 L 584.0 263.0 L 582.0 263.0 L 581.0 262.0 L 580.0 261.0 L 578.0 261.0 L 577.0 260.0 L 576.0 259.0 L 575.0 258.0 L 575.0 256.0 L 574.0 255.0 L 573.0 254.0 L 573.0 252.0 L 574.0 251.0 L 575.0 250.0 L 575.0 248.0 L 576.0 247.0 L 577.0 246.0 L 578.0 245.0 L 580.0 245.0 L 581.0 244.0 L 582.0 243.0 L 584.0 243.0 L 586.0 243.0 L 588.0 243.0 L 590.0 243.0 L 592.0 243.0 L 594.0 243.0 L 595.0 244.0 L 596.0 245.0 L 598.0 245.0 L 599.0 246.0 L 599.0 248.0 L 598.0 249.0 L 597.0 250.0 L 596.0 251.0 L 594.0 251.0 L 592.0 251.0 L 591.0 250.0 L 590.0 249.0 L 588.0 249.0 L 586.0 249.0 L 584.0 249.0 L 583.0 250.0 L 582.0 251.0 L 581.0 252.0 L 582.0 253.0 L 583.0 254.0 L 584.0 255.0 L 585.0 256.0 L 586.0 257.0 L 588.0 257.0 L 590.0 257.0 L 591.0 258.0 L 592.0 259.0 L 594.0 259.0 L 595.0 260.0 L 596.0 261.0 L 597.0 260.0 L 598.0 259.0 L 599.0 258.0 L 599.0 256.0 L 600.0 255.0 L 601.0 254.0 L 602.0 253.0 L 604.0 253.0 L 605.0 252.0 L 606.0 251.0 L 608.0 251.0 L 610.0 251.0 L 612.0 251.0 L 614.0 251.0 L 616.0 251.0 L 618.0 251.0 L 619.0 252.0 L 620.0 253.0 L 621.0 254.0 L 622.0 255.0 L 623.0 256.0 L 624.0 257.0 L 625.0 256.0 L 626.0 255.0 L 627.0 254.0 L 627.0 252.0 L 627.0 250.0 L 628.0 249.0 L 629.0 248.0 L 629.0 246.0 L 629.0 244.0 L 629.0 242.0 L 630.0 241.0 L 632.0 241.0 L 634.0 241.0 L 636.0 241.0 L 637.0 242.0 L 637.0 244.0 L 637.0 246.0 L 636.0 247.0 L 635.0 248.0 L 635.0 250.0 L 636.0 251.0 L 637.0 252.0 L 638.0 253.0 L 639.0 252.0 L 640.0 251.0 L 642.0 251.0 L 644.0 251.0 L 645.0 252.0 L 645.0 254.0 L 645.0 256.0 L 645.0 258.0 L 645.0 260.0 L 644.0 261.0 L 643.0 262.0 L 643.0 264.0 L 643.0 266.0 L 644.0 267.0 L 645.0 268.0 L 646.0 269.0 L 648.0 269.0 L 649.0 268.0 L 650.0 267.0 L 651.0 266.0 L 652.0 265.0 L 653.0 264.0 L 653.0 262.0 L 653.0 260.0 L 654.0 259.0 L 655.0 258.0 L 655.0 256.0 L 655.0 254.0 L 655.0 252.0 L 656.0 251.0 L 658.0 251.0 L 660.0 251.0 L 662.0 251.0 L 664.0 251.0 L 665.0 250.0 L 666.0 249.0 L 667.0 248.0 L 668.0 247.0 L 669.0 246.0 L 670.0 245.0 L 672.0 245.0 L 674.0 245.0 L 675.0 246.0 L 675.0 248.0 L 676.0 249.0 L 677.0 250.0 L 678.0 251.0 L 680.0 251.0 L 681.0 252.0 L 682.0 253.0 L 683.0 252.0 L 684.0 251.0 L 685.0 250.0 L 685.0 248.0 L 684.0 247.0 L 683.0 246.0 L 683.0 244.0 L 683.0 242.0 L 684.0 241.0 L 685.0 240.0 L 686.0 239.0 L 688.0 239.0 L 690.0 239.0 L 691.0 240.0 L 692.0 241.0 L 693.0 242.0 L 693.0 244.0 L 692.0 245.0 L 691.0 246.0 L 690.0 247.0 L 689.0 248.0 L 689.0 250.0 L 689.0 252.0 L 689.0 254.0 L 690.0 255.0 L 691.0 256.0 L 692.0 257.0 L 693.0 256.0 L 694.0 255.0 L 695.0 254.0 L 696.0 253.0 L 697.0 252.0 L 698.0 251.0 L 700.0 251.0 L 702.0 251.0 L 704.0 251.0 L 706.0 251.0 L 708.0 251.0 L 710.0 251.0 L 711.0 252.0 L 712.0 253.0 L 713.0 254.0 L 714.0 255.0 L 715.0 256.0 L 716.0 257.0 L 718.0 257.0 L 719.0 256.0 L 720.0 255.0 L 721.0 254.0 L 721.0 252.0 L 722.0 251.0 L 724.0 251.0 L 726.0 251.0 L 728.0 251.0 L 730.0 251.0 L 732.0 251.0 L 734.0 251.0 L 736.0 251.0 L 738.0 251.0 L 740.0 251.0 L 741.0 252.0 L 742.0 253.0 L 743.0 254.0 L 744.0 255.0 L 745.0 256.0 L 746.0 257.0 L 747.0 256.0 L 748.0 255.0 L 749.0 254.0 L 750.0 253.0 L 751.0 252.0 L 752.0 251.0 L 754.0 251.0 L 756.0 251.0 L 758.0 251.0 L 760.0 251.0 L 762.0 251.0 L 764.0 251.0 L 765.0 252.0 L 766.0 253.0 L 767.0 254.0 L 766.0 255.0 L 765.0 256.0 L 764.0 257.0 L 763.0 258.0 L 762.0 259.0 L 761.0 260.0 L 762.0 261.0 L 763.0 262.0 L 764.0 263.0 L 765.0 264.0 L 765.0 266.0 L 765.0 268.0 L 765.0 270.0 L 764.0 271.0 L 763.0 272.0 L 762.0 273.0 L 761.0 274.0 L 760.0 275.0 Z"/>
    <path d="M 176.0 283.0 L 174.0 283.0 L 172.0 283.0 L 170.0 283.0 L 168.0 283.0 L 166.0 283.0 L 165.0 282.0 L 165.0 280.0 L 166.0 279.0 L 167.0 278.0 L 168.0 277.0 L 170.0 277.0 L 172.0 277.0 L 173.0 276.0 L 174.0 275.0 L 175.0 274.0 L 175.0 272.0 L 175.0 270.0 L 174.0 269.0 L 173.0 268.0 L 172.0 267.0 L 170.0 267.0 L 169.0 268.0 L 168.0 269.0 L 167.0 270.0 L 166.0 271.0 L 165.0 272.0 L 164.0 273.0 L 163.0 274.0 L 162.0 275.0 L 160.0 275.0 L 158.0 275.0 L 156.0 275.0 L 154.0 275.0 L 152.0 275.0 L 151.0 274.0 L 150.0 273.0 L 149.0 274.0 L 148.0 275.0 L 146.0 275.0 L 144.0 275.0 L 142.0 275.0 L 141.0 274.0 L 142.0 273.0 L 143.0 272.0 L 143.0 270.0 L 143.0 268.0 L 143.0 266.0 L 143.0 264.0 L 144.0 263.0 L 145.0 262.0 L 145.0 260.0 L 145.0 258.0 L 145.0 256.0 L 145.0 254.0 L 146.0 253.0 L 147.0 252.0 L 147.0 250.0 L 147.0 248.0 L 147.0 246.0 L 147.0 244.0 L 148.0 243.0 L 149.0 242.0 L 150.0 241.0 L 152.0 241.0 L 154.0 241.0 L 155.0 242.0 L 155.0 244.0 L 155.0 246.0 L 155.0 248.0 L 156.0 249.0 L 157.0 250.0 L 158.0 251.0 L 160.0 251.0 L 162.0 251.0 L 164.0 251.0 L 165.0 252.0 L 166.0 253.0 L 167.0 254.0 L 168.0 255.0 L 169.0 254.0 L 170.0 253.0 L 171.0 252.0 L 172.0 251.0 L 174.0 251.0 L 176.0 251.0 L 177.0 252.0 L 177.0 254.0 L 178.0 255.0 L 179.0 256.0 L 179.0 258.0 L 179.0 260.0 L 180.0 261.0 L 181.0 262.0 L 182.0 263.0 L 183.0 262.0 L 184.0 261.0 L 185.0 260.0 L 185.0 258.0 L 186.0 257.0 L 187.0 256.0 L 187.0 254.0 L 188.0 253.0 L 189.0 252.0 L 190.0 251.0 L 192.0 251.0 L 194.0 251.0 L 196.0 251.0 L 197.0 252.0 L 196.0 253.0 L 195.0 254.0 L 195.0 256.0 L 194.0 257.0 L 193.0 258.0 L 192.0 259.0 L 191.0 260.0 L 191.0 262.0 L 190.0 263.0 L 189.0 264.0 L 189.0 266.0 L 188.0 267.0 L 187.0 268.0 L 186.0 269.0 L 185.0 270.0 L 185.0 272.0 L 184.0 273.0 L 183.0 274.0 L 183.0 276.0 L 182.0 277.0 L 181.0 278.0 L 180.0 279.0 L 179.0 280.0 L 178.0 281.0 L 177.0 282.0 L 176.0 283.0 Z"/>
    <path d="M 288.0 283.0 L 286.0 283.0 L 284.0 283.0 L 282.0 283.0 L 280.0 283.0 L 278.0 283.0 L 276.0 283.0 L 275.0 282.0 L 276.0 281.0 L 277.0 280.0 L 277.0 278.0 L 276.0 277.0 L 275.0 276.0 L 274.0 275.0 L 272.0 275.0 L 270.0 275.0 L 268.0 275.0 L 266.0 275.0 L 264.0 275.0 L 262.0 275.0 L 260.0 275.0 L 258.0 275.0 L 257.0 274.0 L 256.0 273.0 L 255.0 272.0 L 254.0 271.0 L 253.0 270.0 L 252.0 269.0 L 251.0 270.0 L 250.0 271.0 L 249.0 272.0 L 248.0 273.0 L 246.0 273.0 L 245.0 274.0 L 244.0 275.0 L 242.0 275.0 L 240.0 275.0 L 238.0 275.0 L 236.0 275.0 L 234.0 275.0 L 233.0 274.0 L 232.0 273.0 L 231.0 272.0 L 230.0 271.0 L 228.0 271.0 L 227.0 272.0 L 226.0 273.0 L 225.0 274.0 L 224.0 275.0 L 222.0 275.0 L 220.0 275.0 L 218.0 275.0 L 216.0 275.0 L 214.0 275.0 L 212.0 275.0 L 210.0 275.0 L 208.0 275.0 L 206.0 275.0 L 204.0 275.0 L 203.0 274.0 L 203.0 272.0 L 203.0 270.0 L 204.0 269.0 L 205.0 268.0 L 205.0 266.0 L 205.0 264.0 L 205.0 262.0 L 205.0 260.0 L 206.0 259.0 L 207.0 258.0 L 207.0 256.0 L 207.0 254.0 L 207.0 252.0 L 207.0 250.0 L 208.0 249.0 L 209.0 248.0 L 209.0 246.0 L 209.0 244.0 L 210.0 243.0 L 212.0 243.0 L 214.0 243.0 L 215.0 244.0 L 216.0 245.0 L 217.0 246.0 L 216.0 247.0 L 215.0 248.0 L 215.0 250.0 L 215.0 252.0 L 215.0 254.0 L 215.0 256.0 L 214.0 257.0 L 213.0 258.0 L 213.0 260.0 L 213.0 262.0 L 213.0 264.0 L 213.0 266.0 L 214.0 267.0 L 215.0 268.0 L 216.0 269.0 L 218.0 269.0 L 220.0 269.0 L 222.0 269.0 L 224.0 269.0 L 225.0 268.0 L 226.0 267.0 L 227.0 266.0 L 227.0 264.0 L 227.0 262.0 L 227.0 260.0 L 227.0 258.0 L 228.0 257.0 L 229.0 256.0 L 230.0 255.0 L 231.0 254.0 L 232.0 253.0 L 234.0 253.0 L 235.0 252.0 L 236.0 251.0 L 238.0 251.0 L 240.0 251.0 L 242.0 251.0 L 244.0 251.0 L 246.0 251.0 L 247.0 252.0 L 248.0 253.0 L 250.0 253.0 L 251.0 254.0 L 252.0 255.0 L 253.0 254.0 L 254.0 253.0 L 255.0 252.0 L 256.0 251.0 L 257.0 250.0 L 258.0 249.0 L 259.0 248.0 L 260.0 247.0 L 261.0 246.0 L 262.0 245.0 L 264.0 245.0 L 265.0 246.0 L 266.0 247.0 L 267.0 248.0 L 268.0 249.0 L 269.0 250.0 L 270.0 251.0 L 272.0 251.0 L 273.0 250.0 L 274.0 249.0 L 275.0 248.0 L 275.0 246.0 L 275.0 244.0 L 275.0 242.0 L 276.0 241.0 L 278.0 241.0 L 280.0 241.0 L 282.0 241.0 L 283.0 242.0 L 283.0 244.0 L 283.0 246.0 L 282.0 247.0 L 281.0 248.0 L 282.0 249.0 L 283.0 250.0 L 284.0 251.0 L 286.0 251.0 L 288.0 251.0 L 289.0 252.0 L 289.0 254.0 L 289.0 256.0 L 290.0 257.0 L 291.0 258.0 L 292.0 259.0 L 293.0 260.0 L 294.0 261.0 L 295.0 260.0 L 296.0 259.0 L 297.0 258.0 L 298.0 257.0 L 299.0 256.0 L 299.0 254.0 L 300.0 253.0 L 301.0 252.0 L 302.0 251.0 L 304.0 251.0 L 306.0 251.0 L 307.0 252.0 L 307.0 254.0 L 306.0 255.0 L 305.0 256.0 L 305.0 258.0 L 304.0 259.0 L 303.0 260.0 L 303.0 262.0 L 302.0 263.0 L 301.0 264.0 L 300.0 265.0 L 299.0 266.0 L 299.0 268.0 L 298.0 269.0 L 297.0 270.0 L 296.0 271.0 L 295.0 272.0 L 295.0 274.0 L 294.0 275.0 L 293.0 276.0 L 293.0 278.0 L 292.0 279.0 L 291.0 280.0 L 290.0 281.0 L 289.0 282.0 L 288.0 283.0 Z"/>
  </g>
</svg>